<svg width="48" height="48" viewBox="0 0 48 48" fill="none" xmlns="http://www.w3.org/2000/svg">
<circle cx="24" cy="24" r="23.5" stroke="#ECEFF3"/>
<path fill-rule="evenodd" clip-rule="evenodd" d="M21.9687 24.6622C21.7227 24.4756 21.3946 24.3827 20.9909 24.3827H18.9523V26.728H20.9533C21.1384 26.728 21.314 26.7116 21.4792 26.6747C21.6469 26.638 21.7956 26.5799 21.921 26.494C22.0464 26.4114 22.1503 26.2982 22.2258 26.1542C22.3016 26.0115 22.3379 25.8261 22.3379 25.6022C22.3379 25.1631 22.2144 24.8516 21.9687 24.6622Z" fill="#ECEFF3"/>
<path fill-rule="evenodd" clip-rule="evenodd" d="M21.675 22.8639C21.8907 22.7065 21.9953 22.4462 21.9953 22.0894C21.9953 21.8912 21.9605 21.7274 21.8907 21.6003C21.8184 21.4732 21.7227 21.3737 21.6017 21.3041C21.4817 21.2316 21.3462 21.1815 21.1889 21.1545C21.0345 21.1243 20.8725 21.1125 20.7066 21.1125H18.9522V23.1027H20.8497C21.182 23.1027 21.4571 23.0239 21.675 22.8639Z" fill="#ECEFF3"/>
<path fill-rule="evenodd" clip-rule="evenodd" d="M16 14C14.8954 14 14 14.8954 14 16V32C14 33.1046 14.8954 34 16 34H32C33.1046 34 34 33.1046 34 32V16C34 14.8954 33.1046 14 32 14H16ZM26.1159 20.6533C26.1159 20.4212 26.304 20.2331 26.5361 20.2331H29.148C29.38 20.2331 29.5682 20.4212 29.5682 20.6533C29.5682 20.8854 29.38 21.0735 29.148 21.0735H26.5361C26.304 21.0735 26.1159 20.8854 26.1159 20.6533ZM23.9607 26.8223C23.7939 27.1389 23.5669 27.3955 23.287 27.5935C23.005 27.7933 22.6809 27.9398 22.318 28.0352C21.9593 28.1306 21.5866 28.1786 21.2051 28.1786H19.0769C17.9724 28.1786 17.0769 27.2832 17.0769 26.1786V21.6617C17.0769 20.5571 17.9724 19.6617 19.0769 19.6617H21.0924C21.4998 19.6617 21.8674 19.6969 22.2034 19.7698C22.5376 19.8407 22.8228 19.9589 23.0637 20.1211C23.3009 20.2833 23.4866 20.499 23.6196 20.7708C23.7494 21.0385 23.8145 21.3737 23.8145 21.7701C23.8145 22.1988 23.7172 22.5569 23.5226 22.8432C23.3001 23.1675 23.3513 23.8156 23.6259 24.0973C23.6986 24.1719 23.7644 24.2524 23.8233 24.3388C24.082 24.7186 24.2086 25.1731 24.2086 25.7059C24.2086 26.1378 24.1258 26.5097 23.9607 26.8223ZM30.7945 24.13C30.9858 24.8848 30.3073 25.5029 29.5286 25.5029H27.7614C27.044 25.5029 26.3675 26.1994 26.8818 26.6997C27.1353 26.9475 27.502 27.0721 27.977 27.0721C28.3187 27.0721 28.614 26.9857 28.8616 26.8136C28.9193 26.7732 28.9716 26.7321 29.0187 26.6905C29.2515 26.4847 29.5267 26.2669 29.8374 26.2669C30.3158 26.2669 30.6618 26.7424 30.4031 27.1448C30.2095 27.4459 29.9776 27.6836 29.7062 27.8582C29.2157 28.1786 28.6175 28.3382 27.9205 28.3382C27.4347 28.3382 26.9976 28.2596 26.6051 28.1047C26.2128 27.9479 25.885 27.7281 25.6093 27.4416C25.3405 27.1538 25.1317 26.8136 24.983 26.4139C24.8358 26.0164 24.7616 25.5764 24.7616 25.0994C24.7616 24.6383 24.8386 24.2075 24.9893 23.8094C25.1431 23.4099 25.3556 23.0652 25.6352 22.776C25.9153 22.4853 26.2475 22.2559 26.6344 22.0884C27.0213 21.9214 27.448 21.8374 27.9205 21.8374C28.4422 21.8374 28.8992 21.9378 29.2909 22.1423C29.6812 22.344 30.0011 22.6174 30.2525 22.9596C30.5039 23.3011 30.6827 23.6918 30.7945 24.13Z" fill="#ECEFF3"/>
<path fill-rule="evenodd" clip-rule="evenodd" d="M27.8696 23.1165C27.599 23.1165 27.375 23.1619 27.1957 23.2548C27.0204 23.3464 26.8767 23.4604 26.7668 23.5946C26.6576 23.731 26.583 23.875 26.5397 24.029C26.4962 24.179 26.4703 24.3152 26.4624 24.4355H29.2183C29.1779 24.0036 29.03 23.6843 28.8279 23.4598C28.6267 23.2369 28.2856 23.1165 27.8696 23.1165Z" fill="#ECEFF3"/>
</svg>
