<svg width="512" height="512" viewBox="0 0 512 512" fill="none" xmlns="http://www.w3.org/2000/svg">
<path d="M202.009 358.613C200.075 358.613 198.127 357.948 196.538 356.594L141.84 310.019C139.953 308.41 138.868 306.061 138.868 303.58C138.868 301.104 139.958 298.755 141.84 297.146L196.538 250.571C200.09 247.543 205.425 247.972 208.453 251.524C211.476 255.08 211.052 260.415 207.495 263.439L160.358 303.58L207.495 343.722C211.052 346.75 211.476 352.085 208.453 355.637C206.778 357.604 204.401 358.613 202.009 358.613Z" fill="#282C34"/>
<path d="M309.991 358.613C307.599 358.613 305.222 357.604 303.552 355.637C300.524 352.085 300.953 346.75 304.505 343.722L351.642 303.58L304.505 263.439C300.953 260.415 300.524 255.08 303.552 251.524C306.575 247.972 311.915 247.543 315.462 250.571L370.16 297.146C372.047 298.755 373.132 301.104 373.132 303.58C373.132 306.061 372.047 308.41 370.16 310.019L315.462 356.594C313.873 357.948 311.925 358.613 309.991 358.613V358.613Z" fill="#282C34"/>
<path d="M236.637 393.547C236.057 393.547 235.472 393.486 234.882 393.363C230.316 392.401 227.392 387.915 228.354 383.349L262.443 221.495C263.406 216.929 267.887 214.005 272.458 214.967C277.024 215.929 279.948 220.41 278.986 224.981L244.896 386.835C244.057 390.816 240.547 393.547 236.637 393.547V393.547Z" fill="#282C34"/>
<path d="M455.245 481.726H56.7547C25.4623 481.726 0 456.269 0 424.972V86.7547C0 55.4623 25.4623 30 56.7547 30H455.245C486.538 30 512 55.4623 512 86.7547V424.972C512 456.269 486.538 481.726 455.245 481.726ZM56.7547 46.9057C34.783 46.9057 16.9057 64.783 16.9057 86.7547V424.972C16.9057 446.943 34.783 464.821 56.7547 464.821H455.245C477.217 464.821 495.094 446.943 495.094 424.972V86.7547C495.094 64.783 477.217 46.9057 455.245 46.9057H56.7547Z" fill="#282C34"/>
<path d="M503.547 165.354H8.45283C3.78302 165.354 0 161.571 0 156.901C0 152.236 3.78302 148.448 8.45283 148.448H503.547C508.217 148.448 512 152.236 512 156.901C512 161.571 508.217 165.354 503.547 165.354Z" fill="#282C34"/>
<path d="M144.425 124.906C129.679 124.906 117.675 112.901 117.675 98.1556C117.675 83.4056 129.679 71.4056 144.425 71.4056C159.175 71.4056 171.175 83.4056 171.175 98.1556C171.175 112.901 159.175 124.906 144.425 124.906ZM144.425 88.3113C139 88.3113 134.58 92.7264 134.58 98.1556C134.58 103.585 139 108 144.425 108C149.854 108 154.269 103.585 154.269 98.1556C154.269 92.7264 149.854 88.3113 144.425 88.3113Z" fill="#282C34"/>
<path d="M62.2358 124.646C47.4858 124.646 35.4858 112.646 35.4858 97.8962C35.4858 83.1462 47.4858 71.1462 62.2358 71.1462C76.9858 71.1462 88.9858 83.1462 88.9858 97.8962C88.9858 112.646 76.9858 124.646 62.2358 124.646ZM62.2358 88.0519C56.8113 88.0519 52.3915 92.4717 52.3915 97.8962C52.3915 103.325 56.8113 107.741 62.2358 107.741C67.6651 107.741 72.0802 103.325 72.0802 97.8962C72.0802 92.4717 67.6651 88.0519 62.2358 88.0519Z" fill="#282C34"/>
<path d="M226.613 125.16C211.868 125.16 199.868 113.16 199.868 98.4103C199.868 83.665 211.868 71.665 226.613 71.665C241.363 71.665 253.363 83.665 253.363 98.4103C253.363 113.16 241.363 125.16 226.613 125.16ZM226.613 88.566C221.189 88.566 216.774 92.9811 216.774 98.4103C216.774 103.84 221.189 108.255 226.613 108.255C232.042 108.255 236.458 103.84 236.458 98.4103C236.458 92.9811 232.042 88.566 226.613 88.566Z" fill="#282C34"/>
</svg>
