<svg width="95" height="62" viewBox="0 0 95 62" fill="none" xmlns="http://www.w3.org/2000/svg">
<path d="M33.15 61.04L35.902 53.808L0.509995 36.08V29.68L28.03 15.92V21.68L8.19 31.344C7.46466 31.728 6.80333 32.048 6.206 32.304C5.60866 32.56 5.16066 32.7307 4.862 32.816C5.16066 32.9013 5.60866 33.072 6.206 33.328C6.80333 33.584 7.46466 33.904 8.19 34.288L37.694 49.008L55.87 0.879997H61.95L58.046 11.312L94.59 29.68V36.08L67.07 49.84V44.272L86.91 34.544C87.7207 34.16 88.4673 33.84 89.15 33.584C89.8753 33.2853 90.4087 33.0933 90.75 33.008C90.366 32.9227 89.8113 32.752 89.086 32.496C88.3607 32.1973 87.6353 31.856 86.91 31.472L56.19 16.112L39.23 61.04H33.15Z" fill="#61AFEF"/>
</svg>
