<svg width="48" height="48" viewBox="0 0 48 48" fill="none" xmlns="http://www.w3.org/2000/svg">
<circle cx="24" cy="24" r="23.5" stroke="#ECEFF3"/>
<path d="M24 14H32C33.1046 14 34 14.8954 34 16V31.9964C34 33.1006 33.1051 33.9959 32.0009 33.9964L27.2715 33.9986C26.9571 33.9852 26.777 33.7573 26.7772 33.3446C26.7776 32.4926 26.7746 31.6406 26.786 30.7888C26.797 29.9631 26.7 29.1747 26.0816 28.5287C26.5535 28.436 27.0017 28.3688 27.4391 28.2582C28.7344 27.9307 29.8286 27.2956 30.4186 26.0424C31.0624 24.6752 31.2348 23.2347 30.7618 21.78C30.6067 21.3027 30.2643 20.8875 30.0191 20.4376C29.9697 20.3471 29.9303 20.2163 29.9568 20.1245C30.2052 19.2647 30.1395 18.4228 29.8277 17.5967C29.7973 17.5165 29.657 17.4299 29.5663 17.4282C29.0481 17.4189 28.5667 17.587 28.1097 17.8104C27.7169 18.0027 27.3456 18.2384 26.9577 18.4412C26.8631 18.4907 26.731 18.5248 26.6321 18.5009C24.9283 18.0876 23.2276 18.0858 21.5235 18.4993C21.4182 18.525 21.2721 18.4884 21.1762 18.4295C20.4627 17.9921 19.7385 17.5846 18.897 17.4454C18.8716 17.4411 18.8466 17.4347 18.8209 17.4312C18.4012 17.3739 18.3661 17.3944 18.24 17.8057C17.9997 18.589 17.9627 19.3744 18.2051 20.1665C18.2269 20.2374 18.2003 20.354 18.1514 20.4109C17.1835 21.5372 17.0144 22.8566 17.2033 24.266C17.324 25.1659 17.5865 26.0114 18.1605 26.7337C18.864 27.6191 19.8261 28.065 20.8971 28.3128C21.269 28.399 21.6482 28.4548 22.0577 28.5306C21.6894 28.9215 21.5067 29.3673 21.4089 29.8563C21.3961 29.9192 21.3101 29.9881 21.2425 30.0166C20.0294 30.5267 18.9511 30.1885 18.2506 29.084C17.8963 28.5257 17.4335 28.1059 16.7642 27.9803C16.5938 27.9484 16.405 27.973 16.2322 28.0081C16.0609 28.0428 16.0406 28.1727 16.149 28.2992C16.2319 28.3962 16.3267 28.4917 16.4351 28.5565C17.0157 28.9035 17.3884 29.4234 17.6358 30.0313C18.0534 31.0574 18.8587 31.5045 19.9066 31.5649C20.3817 31.5923 20.8622 31.5287 21.3655 31.5052C21.3655 32.1766 21.3836 32.8726 21.358 33.5671C21.3481 33.8343 21.132 33.9922 20.8499 33.9955V34H18.5H16C14.8954 34 14 33.1046 14 32V16C14 14.8954 14.8954 14 16 14H24Z" fill="#ECEFF3"/>
</svg>
