<svg width="48" height="48" viewBox="0 0 48 48" fill="none" xmlns="http://www.w3.org/2000/svg">
<circle cx="24" cy="24" r="23.5" stroke="#ECEFF3"/>
<path fill-rule="evenodd" clip-rule="evenodd" d="M14 16C14 14.8954 14.8954 14 16 14H32C33.1046 14 34 14.8954 34 16V32C34 33.1046 33.1046 34 32 34H16C14.8954 34 14 33.1046 14 32V16ZM20.3765 18.7154C20.3785 17.7948 19.623 17.0383 18.7069 17.0375C17.7798 17.0368 17.0214 17.7881 17.0214 18.7091C17.0212 19.6586 17.8044 20.403 18.6957 20.385C19.5743 20.4059 20.3743 19.6794 20.3765 18.7154ZM19.6801 30.9604H17.7175C17.4628 30.9604 17.2563 30.7539 17.2563 30.4992V22.1267C17.2563 21.8719 17.4628 21.6655 17.7175 21.6655H19.6801C19.9348 21.6655 20.1413 21.8719 20.1413 22.1267V30.4993C20.1413 30.7539 19.9348 30.9604 19.6801 30.9604ZM27.8004 21.4281C29.5557 21.4281 30.9786 22.851 30.9786 24.6063C30.9786 24.6063 30.9786 24.6063 30.9786 24.6063V24.6063C30.9785 24.6063 30.9785 24.6063 30.9785 24.6064V30.7709C30.9785 30.8767 30.8928 30.9625 30.787 30.9624L28.2789 30.9618C28.1732 30.9618 28.0875 30.8761 28.0875 30.7703V25.6003C28.0875 25.1533 27.9064 24.7485 27.6134 24.4558C27.3166 24.1588 26.9047 23.9767 26.4504 23.9819C25.5605 23.9919 24.8506 24.7309 24.8506 25.6209V30.7697C24.8506 30.8754 24.7649 30.9612 24.6591 30.9611L22.1572 30.9605C22.0514 30.9605 21.9658 30.8748 21.9658 30.7691V21.8569C21.9658 21.7512 22.0515 21.6655 22.1572 21.6655H24.6058C24.7116 21.6655 24.7973 21.7512 24.7973 21.8569V22.8618C24.7973 22.8675 24.8115 22.8861 24.8171 22.887V22.887C24.8193 22.8873 24.8243 22.8866 24.8254 22.8847C24.8722 22.8002 24.9231 22.7184 24.9781 22.6396C25.4884 21.9073 26.3368 21.4281 27.2971 21.4281H27.8004Z" fill="#ECEFF3"/>
</svg>
