<svg width="443" height="77" viewBox="0 0 443 77" fill="none" xmlns="http://www.w3.org/2000/svg">
<path d="M391.804 46.5347L409.035 0H416.777L413.53 8.71287L441.5 21.2376V28.3168L418.525 38.6634V31.9307L432.31 25.8911C433.009 25.5941 433.792 25.363 434.657 25.198C435.556 25 436.272 24.8845 436.805 24.8515C436.272 24.7855 435.556 24.67 434.657 24.505C433.792 24.3069 433.009 24.0594 432.31 23.7624L411.383 14.4554L399.545 46.5347H391.804Z" fill="#61AFEF"/>
<path d="M371.215 41.5842C368.951 41.5842 366.97 41.2376 365.272 40.5446C363.573 39.8185 362.242 38.8284 361.276 37.5743C360.344 36.3201 359.877 34.8515 359.877 33.1683H367.369C367.369 33.9604 367.719 34.604 368.418 35.099C369.151 35.5611 370.083 35.7921 371.215 35.7921H373.413C374.778 35.7921 375.81 35.5445 376.509 35.0495C377.242 34.5544 377.608 33.8614 377.608 32.9703C377.608 32.1452 377.292 31.5181 376.659 31.0891C376.027 30.6271 375.044 30.3135 373.712 30.1485L370.516 29.7525C367.086 29.3234 364.589 28.4983 363.024 27.2772C361.459 26.0561 360.677 24.1914 360.677 21.6832C360.677 19.0429 361.592 16.9967 363.424 15.5445C365.255 14.0924 367.935 13.3663 371.465 13.3663H373.363C376.726 13.3663 379.406 14.0924 381.404 15.5445C383.402 16.9967 384.401 18.9439 384.401 21.3861H376.909C376.909 20.7261 376.576 20.198 375.91 19.802C375.277 19.3729 374.428 19.1584 373.363 19.1584H371.465C370.233 19.1584 369.334 19.3729 368.768 19.802C368.202 20.198 367.919 20.8086 367.919 21.6337C367.919 22.3927 368.168 22.9703 368.668 23.3663C369.201 23.7624 370.033 24.0429 371.165 24.2079L374.611 24.6535C378.074 25.0825 380.638 25.9406 382.303 27.2277C384.001 28.5148 384.85 30.429 384.85 32.9703C384.85 35.7426 383.885 37.8713 381.954 39.3564C380.022 40.8416 377.175 41.5842 373.413 41.5842H371.215Z" fill="#61AFEF"/>
<path d="M338.87 41.5842C336.106 41.5842 333.909 40.8416 332.277 39.3564C330.679 37.8713 329.88 35.8581 329.88 33.3168C329.88 30.5776 330.829 28.4818 332.727 27.0297C334.658 25.5445 337.421 24.802 341.018 24.802H346.711V22.7723C346.711 21.7162 346.328 20.8746 345.563 20.2475C344.83 19.6205 343.831 19.3069 342.566 19.3069C341.4 19.3069 340.435 19.571 339.669 20.099C338.903 20.6271 338.437 21.3531 338.271 22.2772H331.028C331.328 19.5379 332.527 17.3762 334.624 15.7921C336.756 14.1749 339.486 13.3663 342.816 13.3663C346.312 13.3663 349.076 14.2244 351.107 15.9406C353.171 17.6238 354.203 19.901 354.203 22.7723V41.0891H346.961V36.6337H345.762L347.011 34.901C347.011 36.9472 346.262 38.5809 344.764 39.802C343.298 40.9901 341.334 41.5842 338.87 41.5842ZM341.667 36.1386C343.132 36.1386 344.331 35.7591 345.263 35C346.229 34.2079 346.711 33.1848 346.711 31.9307V29.0099H341.167C340.035 29.0099 339.12 29.3399 338.42 30C337.721 30.6271 337.372 31.4686 337.372 32.5247C337.372 33.6469 337.754 34.5379 338.52 35.198C339.286 35.8251 340.335 36.1386 341.667 36.1386Z" fill="#61AFEF"/>
<path d="M301.48 50V43.0693H309.471C310.836 43.0693 311.885 42.6898 312.618 41.9307C313.35 41.2046 313.716 40.1815 313.716 38.8614V20.7921H302.978V13.8614H321.208V39.1089C321.208 42.4752 320.209 45.132 318.212 47.0792C316.214 49.0264 313.483 50 310.02 50H301.48ZM317.213 9.55444C315.848 9.55444 314.749 9.2079 313.916 8.51483C313.117 7.82176 312.718 6.88117 312.718 5.69305C312.718 4.50493 313.117 3.56434 313.916 2.87127C314.749 2.1782 315.848 1.83167 317.213 1.83167C318.578 1.83167 319.66 2.1782 320.459 2.87127C321.292 3.56434 321.708 4.50493 321.708 5.69305C321.708 6.88117 321.292 7.82176 320.459 8.51483C319.66 9.2079 318.578 9.55444 317.213 9.55444Z" fill="#61AFEF"/>
<path d="M282.52 41.5842C280.089 41.5842 277.975 41.1386 276.177 40.2475C274.379 39.3234 272.98 38.0528 271.981 36.4356C271.016 34.7855 270.533 32.8713 270.533 30.6931V24.2574C270.533 22.0792 271.016 20.1815 271.981 18.5644C272.98 16.9142 274.379 15.6436 276.177 14.7525C277.975 13.8284 280.089 13.3663 282.52 13.3663C284.984 13.3663 287.098 13.8284 288.863 14.7525C290.661 15.6436 292.043 16.9142 293.008 18.5644C294.007 20.1815 294.507 22.0792 294.507 24.2574V30.6931C294.507 32.8713 294.007 34.7855 293.008 36.4356C292.043 38.0528 290.661 39.3234 288.863 40.2475C287.098 41.1386 284.984 41.5842 282.52 41.5842ZM282.52 35.1485C283.985 35.1485 285.1 34.769 285.866 34.0099C286.632 33.2178 287.015 32.1122 287.015 30.6931V24.2574C287.015 22.8053 286.632 21.6997 285.866 20.9406C285.1 20.1815 283.985 19.802 282.52 19.802C281.088 19.802 279.972 20.1815 279.173 20.9406C278.408 21.6997 278.025 22.8053 278.025 24.2574V30.6931C278.025 32.1122 278.408 33.2178 279.173 34.0099C279.972 34.769 281.088 35.1485 282.52 35.1485Z" fill="#61AFEF"/>
<path d="M241.684 41.0891V13.8614H248.676V19.0594H250.574L248.426 22.2277C248.426 19.2904 249.109 17.0792 250.474 15.5941C251.839 14.1089 253.837 13.3663 256.468 13.3663C259.498 13.3663 261.845 14.2739 263.51 16.0891C265.208 17.9043 266.057 20.462 266.057 23.7624V25.9901H258.066V24.2574C258.066 22.7723 257.65 21.6172 256.817 20.7921C256.018 19.967 254.936 19.5544 253.571 19.5544C252.139 19.5544 251.04 19.967 250.274 20.7921C249.542 21.6172 249.175 22.7723 249.175 24.2574V41.0891H241.684Z" fill="#61AFEF"/>
<path d="M222.624 41.5841C221.092 41.5841 219.86 41.1386 218.928 40.2475C218.029 39.3234 217.579 38.1023 217.579 36.5841C217.579 35.033 218.029 33.8118 218.928 32.9207C219.86 32.0296 221.092 31.5841 222.624 31.5841C224.189 31.5841 225.421 32.0296 226.32 32.9207C227.219 33.8118 227.668 35.033 227.668 36.5841C227.668 38.1023 227.219 39.3234 226.32 40.2475C225.421 41.1386 224.189 41.5841 222.624 41.5841Z" fill="#ECEFF3"/>
<path d="M197.171 41.0892C195.24 41.0892 193.542 40.6931 192.076 39.9011C190.611 39.076 189.463 37.9374 188.63 36.4852C187.831 35.0331 187.431 33.3499 187.431 31.4357V11.6337H178.941V4.95056H194.923V31.4357C194.923 32.3268 195.19 33.0529 195.723 33.6139C196.289 34.142 197.021 34.406 197.92 34.406H205.911V41.0892H197.171Z" fill="#ECEFF3"/>
<path d="M162.778 41.5842C160.347 41.5842 158.216 41.1386 156.385 40.2475C154.587 39.3234 153.188 38.0528 152.189 36.4356C151.224 34.7855 150.741 32.8713 150.741 30.6931V24.2574C150.741 22.0792 151.224 20.1815 152.189 18.5644C153.188 16.9142 154.587 15.6436 156.385 14.7525C158.216 13.8284 160.347 13.3663 162.778 13.3663C165.208 13.3663 167.306 13.8284 169.071 14.7525C170.869 15.6436 172.251 16.9142 173.216 18.5644C174.215 20.1815 174.715 22.0792 174.715 24.2574V29.2079H157.883V30.6931C157.883 32.4092 158.299 33.7129 159.132 34.604C159.964 35.462 161.213 35.8911 162.878 35.8911C164.043 35.8911 164.975 35.6931 165.675 35.297C166.407 34.901 166.89 34.3564 167.123 33.6634H174.465C173.866 36.0396 172.5 37.9538 170.369 39.4059C168.272 40.8581 165.741 41.5842 162.778 41.5842ZM167.572 25.396V24.1584C167.572 22.4752 167.173 21.1881 166.374 20.297C165.608 19.4059 164.409 18.9604 162.778 18.9604C161.146 18.9604 159.914 19.4224 159.082 20.3465C158.283 21.2706 157.883 22.5743 157.883 24.2574V25L168.072 24.901L167.572 25.396Z" fill="#ECEFF3"/>
<path d="M121.292 41.0891V34.3564H130.782V20.5445H122.541V13.8614H137.774V34.3564H145.765V41.0891H121.292ZM133.778 9.55444C132.413 9.55444 131.314 9.2079 130.482 8.51483C129.683 7.82176 129.283 6.88117 129.283 5.69305C129.283 4.50493 129.683 3.56434 130.482 2.87127C131.314 2.1782 132.413 1.83167 133.778 1.83167C135.144 1.83167 136.226 2.1782 137.025 2.87127C137.857 3.56434 138.274 4.50493 138.274 5.69305C138.274 6.88117 137.857 7.82176 137.025 8.51483C136.226 9.2079 135.144 9.55444 133.778 9.55444Z" fill="#ECEFF3"/>
<path d="M91.1443 41.0891V13.8614H98.3864V19.0594H100.584L98.3864 20.7921C98.3864 18.4818 99.0524 16.6667 100.384 15.3465C101.716 14.0264 103.514 13.3663 105.778 13.3663C108.442 13.3663 110.573 14.2904 112.172 16.1386C113.803 17.9868 114.619 20.4455 114.619 23.5148V41.0891H107.127V24.2574C107.127 22.8383 106.744 21.7492 105.978 20.9901C105.246 20.198 104.197 19.802 102.832 19.802C101.5 19.802 100.468 20.198 99.735 20.9901C99.0024 21.7492 98.6362 22.8383 98.6362 24.2574V41.0891H91.1443Z" fill="#ECEFF3"/>
<path d="M69.3374 41.5842C66.5738 41.5842 64.3761 40.8416 62.7446 39.3564C61.1463 37.8713 60.3472 35.8581 60.3472 33.3168C60.3472 30.5776 61.2961 28.4818 63.1941 27.0297C65.1253 25.5445 67.889 24.802 71.4851 24.802H77.1789V22.7723C77.1789 21.7162 76.796 20.8746 76.0302 20.2475C75.2976 19.6205 74.2987 19.3069 73.0334 19.3069C71.868 19.3069 70.9024 19.571 70.1366 20.099C69.3707 20.6271 68.9046 21.3531 68.7381 22.2772H61.4959C61.7956 19.5379 62.9943 17.3762 65.092 15.7921C67.2231 14.1749 69.9534 13.3663 73.2832 13.3663C76.7794 13.3663 79.543 14.2244 81.5742 15.9406C83.6386 17.6238 84.6708 19.901 84.6708 22.7723V41.0891H77.4287V36.6337H76.23L77.4786 34.901C77.4786 36.9472 76.7294 38.5809 75.231 39.802C73.766 40.9901 71.8014 41.5842 69.3374 41.5842ZM72.1344 36.1386C73.5995 36.1386 74.7982 35.7591 75.7305 35C76.6961 34.2079 77.1789 33.1848 77.1789 31.9307V29.0099H71.6349C70.5028 29.0099 69.5872 29.3399 68.8879 30C68.1887 30.6271 67.8391 31.4686 67.8391 32.5247C67.8391 33.6469 68.222 34.5379 68.9878 35.198C69.7536 35.8251 70.8025 36.1386 72.1344 36.1386Z" fill="#ECEFF3"/>
<path d="M31.0984 41.0892V4.95056H42.9356C45.4662 4.95056 47.6638 5.42911 49.5284 6.3862C51.4264 7.3433 52.8915 8.69644 53.9237 10.4456C54.9892 12.1618 55.5219 14.1915 55.5219 16.5347V29.4555C55.5219 31.7657 54.9892 33.7954 53.9237 35.5446C52.8915 37.2938 51.4264 38.6634 49.5284 39.6535C47.6638 40.6106 45.4662 41.0892 42.9356 41.0892H31.0984ZM38.5903 34.1585H42.9356C44.4672 34.1585 45.6992 33.7294 46.6316 32.8714C47.5639 32.0133 48.0301 30.8747 48.0301 29.4555V16.5347C48.0301 15.1486 47.5639 14.0265 46.6316 13.1684C45.6992 12.3103 44.4672 11.8813 42.9356 11.8813H38.5903V34.1585Z" fill="#ECEFF3"/>
<path d="M24.4751 38.6634L1.5 28.3664V21.2872L24.4751 10.9407V17.6733L10.69 23.6634C10.0241 23.9605 9.32486 24.208 8.59232 24.406C7.85978 24.604 7.27708 24.7361 6.84421 24.8021C7.27708 24.8681 7.85978 25.0001 8.59232 25.1981C9.32486 25.3631 10.0241 25.5941 10.69 25.8912L24.4751 31.8813V38.6634Z" fill="#61AFEF"/>
<path d="M434.547 73.4263V62.5068H436.306V64.5914H436.725L436.146 65.8819C436.146 64.7039 436.399 63.8171 436.905 63.2215C437.425 62.6127 438.191 62.3082 439.203 62.3082C440.362 62.3082 441.282 62.6722 441.961 63.4002C442.654 64.1149 443 65.0877 443 66.3187V66.9739H441.202V66.4775C441.202 65.6172 440.988 64.962 440.562 64.512C440.149 64.0487 439.556 63.8171 438.784 63.8171C438.024 63.8171 437.425 64.0487 436.985 64.512C436.559 64.9752 436.346 65.6304 436.346 66.4775V73.4263H434.547Z" fill="#ECEFF3"/>
<path d="M420.947 73.6248C420.081 73.6248 419.322 73.4528 418.669 73.1086C418.03 72.7645 417.53 72.2814 417.17 71.6593C416.824 71.024 416.651 70.2894 416.651 69.4556V66.4775C416.651 65.6304 416.824 64.8958 417.17 64.2737C417.53 63.6517 418.03 63.1686 418.669 62.8244C419.322 62.4803 420.081 62.3082 420.947 62.3082C421.813 62.3082 422.566 62.4803 423.205 62.8244C423.858 63.1686 424.357 63.6517 424.704 64.2737C425.063 64.8958 425.243 65.6304 425.243 66.4775V68.4033H418.409V69.4556C418.409 70.3159 418.629 70.9777 419.069 71.4409C419.508 71.891 420.134 72.116 420.947 72.116C421.64 72.116 422.199 71.9968 422.626 71.7586C423.052 71.5071 423.312 71.1365 423.405 70.6468H425.203C425.083 71.5601 424.63 72.288 423.844 72.8307C423.072 73.3601 422.106 73.6248 420.947 73.6248ZM423.485 67.2121V66.4775C423.485 65.6172 423.265 64.9554 422.825 64.4921C422.399 64.0289 421.773 63.7973 420.947 63.7973C420.134 63.7973 419.508 64.0289 419.069 64.4921C418.629 64.9554 418.409 65.6172 418.409 66.4775V67.0533H423.625L423.485 67.2121Z" fill="#ECEFF3"/>
<path d="M399.414 73.4263V62.5068H401.212V64.5914H401.592L401.212 65.0083C401.212 64.148 401.472 63.4862 401.991 63.023C402.511 62.5465 403.23 62.3082 404.149 62.3082C405.255 62.3082 406.134 62.6457 406.787 63.3208C407.44 63.9958 407.766 64.9157 407.766 66.0804V73.4263H405.968V66.279C405.968 65.4981 405.755 64.9024 405.328 64.4921C404.915 64.0686 404.349 63.8568 403.63 63.8568C402.884 63.8568 402.291 64.0818 401.851 64.5318C401.425 64.9819 401.212 65.6304 401.212 66.4775V73.4263H399.414Z" fill="#ECEFF3"/>
<path d="M383.415 77V75.372H386.912C387.472 75.372 387.878 75.2462 388.131 74.9948C388.397 74.7433 388.531 74.3528 388.531 73.8234V72.4336L388.571 70.4482H388.211L388.551 70.1504C388.551 70.9446 388.284 71.5733 387.751 72.0365C387.219 72.4998 386.506 72.7314 385.613 72.7314C384.481 72.7314 383.588 72.3674 382.936 71.6395C382.283 70.8983 381.956 69.9056 381.956 68.6614V66.3584C381.956 65.1142 382.283 64.1282 382.936 63.4002C383.588 62.6722 384.481 62.3082 385.613 62.3082C386.506 62.3082 387.219 62.5399 387.751 63.0031C388.284 63.4664 388.551 64.0951 388.551 64.8892L388.211 64.5914H388.551V62.5068H390.329V73.8234C390.329 74.8028 390.023 75.5771 389.41 76.1463C388.81 76.7154 387.971 77 386.892 77H383.415ZM386.153 71.1828C386.899 71.1828 387.485 70.9512 387.911 70.488C388.338 70.0247 388.551 69.3828 388.551 68.5621V66.4775C388.551 65.6569 388.338 65.0149 387.911 64.5517C387.485 64.0884 386.899 63.8568 386.153 63.8568C385.393 63.8568 384.801 64.0818 384.374 64.5318C383.961 64.9819 383.755 65.6304 383.755 66.4775V68.5621C383.755 69.4092 383.961 70.0578 384.374 70.5078C384.801 70.9578 385.393 71.1828 386.153 71.1828Z" fill="#ECEFF3"/>
<path d="M364.519 73.4263V71.7983H368.416V64.1348H365.019V62.5068H370.214V71.7983H373.911V73.4263H364.519ZM369.115 60.5413C368.676 60.5413 368.329 60.4288 368.076 60.2038C367.823 59.9788 367.697 59.6743 367.697 59.2905C367.697 58.8934 367.823 58.5824 368.076 58.3574C368.329 58.1191 368.676 58 369.115 58C369.555 58 369.901 58.1191 370.155 58.3574C370.408 58.5824 370.534 58.8934 370.534 59.2905C370.534 59.6743 370.408 59.9788 370.155 60.2038C369.901 60.4288 369.555 60.5413 369.115 60.5413Z" fill="#ECEFF3"/>
<path d="M351.099 73.5852C350.353 73.5852 349.7 73.4727 349.141 73.2477C348.594 73.0095 348.155 72.6786 347.822 72.255C347.502 71.8315 347.309 71.3285 347.242 70.7461H349.041C349.121 71.13 349.334 71.4344 349.68 71.6594C350.04 71.8844 350.513 71.9969 351.099 71.9969H351.938C352.644 71.9969 353.17 71.858 353.517 71.58C353.863 71.2888 354.036 70.905 354.036 70.4285C354.036 69.9652 353.876 69.6012 353.557 69.3365C353.25 69.0586 352.791 68.8733 352.178 68.7806L350.699 68.5424C349.62 68.3571 348.814 68.0262 348.281 67.5497C347.762 67.06 347.502 66.3519 347.502 65.4253C347.502 64.4459 347.815 63.6915 348.441 63.162C349.067 62.6194 350.006 62.348 351.259 62.348H352.018C353.07 62.348 353.916 62.5929 354.556 63.0826C355.195 63.5723 355.582 64.2341 355.715 65.068H353.916C353.836 64.7239 353.637 64.4525 353.317 64.254C352.997 64.0422 352.564 63.9363 352.018 63.9363H351.259C350.579 63.9363 350.08 64.0621 349.76 64.3135C349.454 64.565 349.3 64.9422 349.3 65.4452C349.3 65.8952 349.434 66.2261 349.7 66.4379C349.967 66.6497 350.386 66.8019 350.959 66.8945L352.438 67.1328C353.623 67.3181 354.483 67.6622 355.015 68.1652C355.562 68.6681 355.835 69.3961 355.835 70.3491C355.835 71.355 355.508 72.1491 354.856 72.7315C354.216 73.3007 353.244 73.5852 351.938 73.5852H351.099Z" fill="#ECEFF3"/>
<path d="M334.062 73.6248C333.196 73.6248 332.436 73.4528 331.783 73.1086C331.144 72.7645 330.644 72.2814 330.285 71.6593C329.938 71.024 329.765 70.2894 329.765 69.4556V66.4775C329.765 65.6304 329.938 64.8958 330.285 64.2737C330.644 63.6517 331.144 63.1686 331.783 62.8244C332.436 62.4803 333.196 62.3082 334.062 62.3082C334.927 62.3082 335.68 62.4803 336.32 62.8244C336.972 63.1686 337.472 63.6517 337.818 64.2737C338.178 64.8958 338.358 65.6304 338.358 66.4775V68.4033H331.524V69.4556C331.524 70.3159 331.744 70.9777 332.183 71.4409C332.623 71.891 333.249 72.116 334.062 72.116C334.754 72.116 335.314 71.9968 335.74 71.7586C336.166 71.5071 336.426 71.1365 336.519 70.6468H338.318C338.198 71.5601 337.745 72.288 336.959 72.8307C336.186 73.3601 335.221 73.6248 334.062 73.6248ZM336.599 67.2121V66.4775C336.599 65.6172 336.38 64.9554 335.94 64.4921C335.514 64.0289 334.887 63.7973 334.062 63.7973C333.249 63.7973 332.623 64.0289 332.183 64.4921C331.744 64.9554 331.524 65.6172 331.524 66.4775V67.0533H336.739L336.599 67.2121Z" fill="#ECEFF3"/>
<path d="M316.045 73.6249C314.953 73.6249 314.067 73.2609 313.387 72.5329C312.721 71.8049 312.388 70.8189 312.388 69.5747V66.3782C312.388 65.1208 312.721 64.1282 313.387 63.4002C314.053 62.6722 314.939 62.3082 316.045 62.3082C316.951 62.3082 317.677 62.5531 318.223 63.0428C318.769 63.5325 319.042 64.1877 319.042 65.0083L318.683 64.5914H319.082L319.042 62.1097V58.9331H320.841V73.4263H319.042V71.3417H318.683L319.042 70.9247C319.042 71.7586 318.769 72.4204 318.223 72.9101C317.677 73.3866 316.951 73.6249 316.045 73.6249ZM316.644 72.0763C317.39 72.0763 317.977 71.8446 318.403 71.3814C318.829 70.9181 319.042 70.2762 319.042 69.4556V66.4775C319.042 65.6569 318.829 65.015 318.403 64.5517C317.977 64.0885 317.39 63.8568 316.644 63.8568C315.885 63.8568 315.286 64.0818 314.846 64.5319C314.406 64.9819 314.187 65.6304 314.187 66.4775V69.4556C314.187 70.3027 314.406 70.9512 314.846 71.4012C315.286 71.8513 315.885 72.0763 316.644 72.0763Z" fill="#ECEFF3"/>
<path d="M280.971 73.6248C279.812 73.6248 278.899 73.3337 278.233 72.7513C277.567 72.1557 277.234 71.3549 277.234 70.349C277.234 69.3298 277.567 68.5291 278.233 67.9467C278.899 67.3643 279.799 67.0731 280.931 67.0731H284.328V65.9812C284.328 65.3061 284.122 64.7899 283.709 64.4326C283.309 64.062 282.736 63.8767 281.99 63.8767C281.337 63.8767 280.791 64.0156 280.352 64.2936C279.912 64.5583 279.659 64.9223 279.592 65.3856H277.794C277.914 64.4458 278.36 63.698 279.133 63.1421C279.905 62.5862 280.871 62.3082 282.03 62.3082C283.296 62.3082 284.295 62.6325 285.028 63.2811C285.76 63.9296 286.127 64.8098 286.127 65.9216V73.4263H284.368V71.3417H284.068L284.368 71.0439C284.368 71.838 284.055 72.4667 283.429 72.93C282.816 73.3932 281.997 73.6248 280.971 73.6248ZM281.411 72.2152C282.263 72.2152 282.963 72.0035 283.509 71.5799C284.055 71.1564 284.328 70.6137 284.328 69.9519V68.4033H280.971C280.372 68.4033 279.899 68.5688 279.552 68.8997C279.206 69.2306 279.033 69.6806 279.033 70.2497C279.033 70.8586 279.239 71.3417 279.652 71.699C280.078 72.0432 280.665 72.2152 281.411 72.2152Z" fill="#ECEFF3"/>
<path d="M260.257 73.4263V71.7983H264.153V64.1348H260.756V62.5068H265.952V71.7983H269.649V73.4263H260.257ZM264.853 60.5413C264.413 60.5413 264.067 60.4288 263.814 60.2038C263.561 59.9788 263.434 59.6743 263.434 59.2905C263.434 58.8934 263.561 58.5824 263.814 58.3574C264.067 58.1191 264.413 58 264.853 58C265.292 58 265.639 58.1191 265.892 58.3574C266.145 58.5824 266.272 58.8934 266.272 59.2905C266.272 59.6743 266.145 59.9788 265.892 60.2038C265.639 60.4288 265.292 60.5413 264.853 60.5413Z" fill="#ECEFF3"/>
<path d="M246.536 73.6249C245.444 73.6249 244.558 73.2609 243.879 72.5329C243.213 71.8049 242.88 70.8189 242.88 69.5747V66.3782C242.88 65.1208 243.213 64.1282 243.879 63.4002C244.545 62.6722 245.431 62.3082 246.536 62.3082C247.442 62.3082 248.168 62.5531 248.715 63.0428C249.261 63.5325 249.534 64.1877 249.534 65.0083L249.174 64.5914H249.574L249.534 62.1097V58.9331H251.332V73.4263H249.534V71.3417H249.174L249.534 70.9247C249.534 71.7586 249.261 72.4204 248.715 72.9101C248.168 73.3866 247.442 73.6249 246.536 73.6249ZM247.136 72.0763C247.882 72.0763 248.468 71.8446 248.894 71.3814C249.321 70.9181 249.534 70.2762 249.534 69.4556V66.4775C249.534 65.6569 249.321 65.015 248.894 64.5517C248.468 64.0885 247.882 63.8568 247.136 63.8568C246.377 63.8568 245.777 64.0818 245.338 64.5319C244.898 64.9819 244.678 65.6304 244.678 66.4775V69.4556C244.678 70.3027 244.898 70.9512 245.338 71.4012C245.777 71.8513 246.377 72.0763 247.136 72.0763Z" fill="#ECEFF3"/>
<path d="M229.799 73.6248C228.933 73.6248 228.174 73.4528 227.521 73.1086C226.881 72.7645 226.382 72.2814 226.022 71.6593C225.676 71.024 225.503 70.2894 225.503 69.4556V66.4775C225.503 65.6304 225.676 64.8958 226.022 64.2737C226.382 63.6517 226.881 63.1686 227.521 62.8244C228.174 62.4803 228.933 62.3082 229.799 62.3082C230.665 62.3082 231.417 62.4803 232.057 62.8244C232.71 63.1686 233.209 63.6517 233.556 64.2737C233.915 64.8958 234.095 65.6304 234.095 66.4775V68.4033H227.261V69.4556C227.261 70.3159 227.481 70.9777 227.92 71.4409C228.36 71.891 228.986 72.116 229.799 72.116C230.492 72.116 231.051 71.9968 231.477 71.7586C231.904 71.5071 232.163 71.1365 232.257 70.6468H234.055C233.935 71.5601 233.482 72.288 232.696 72.8307C231.924 73.3601 230.958 73.6248 229.799 73.6248ZM232.337 67.2121V66.4775C232.337 65.6172 232.117 64.9554 231.677 64.4921C231.251 64.0289 230.625 63.7973 229.799 63.7973C228.986 63.7973 228.36 64.0289 227.92 64.4921C227.481 64.9554 227.261 65.6172 227.261 66.4775V67.0533H232.477L232.337 67.2121Z" fill="#ECEFF3"/>
<path d="M207.746 73.4263V62.5068H209.324V63.8171H209.684L209.404 64.2936C209.404 63.6848 209.564 63.2016 209.884 62.8443C210.217 62.4869 210.663 62.3082 211.223 62.3082C211.836 62.3082 212.309 62.5332 212.642 62.9833C212.975 63.4333 213.141 64.0686 213.141 64.8892L212.602 63.8171H213.441L213.061 64.2936C213.061 63.6848 213.228 63.2016 213.561 62.8443C213.907 62.4869 214.36 62.3082 214.92 62.3082C215.612 62.3082 216.145 62.5663 216.518 63.0825C216.905 63.5987 217.098 64.2804 217.098 65.1275V73.4263H215.439V65.1076C215.439 64.6576 215.339 64.3068 215.139 64.0554C214.953 63.8039 214.673 63.6781 214.3 63.6781C213.94 63.6781 213.654 63.8039 213.441 64.0554C213.241 64.2936 213.141 64.6377 213.141 65.0877V73.4263H211.702V65.1076C211.702 64.6443 211.596 64.2936 211.383 64.0554C211.183 63.8039 210.896 63.6781 210.523 63.6781C210.15 63.6781 209.871 63.8039 209.684 64.0554C209.498 64.2936 209.404 64.6377 209.404 65.0877V73.4263H207.746Z" fill="#ECEFF3"/>
<path d="M177.668 73.6248C176.802 73.6248 176.042 73.4528 175.39 73.1086C174.75 72.7645 174.251 72.2814 173.891 71.6593C173.545 71.024 173.371 70.2894 173.371 69.4556V66.4775C173.371 65.6304 173.545 64.8958 173.891 64.2737C174.251 63.6517 174.75 63.1686 175.39 62.8244C176.042 62.4803 176.802 62.3082 177.668 62.3082C178.534 62.3082 179.286 62.4803 179.926 62.8244C180.578 63.1686 181.078 63.6517 181.424 64.2737C181.784 64.8958 181.964 65.6304 181.964 66.4775V68.4033H175.13V69.4556C175.13 70.3159 175.35 70.9777 175.789 71.4409C176.229 71.891 176.855 72.116 177.668 72.116C178.36 72.116 178.92 71.9968 179.346 71.7586C179.772 71.5071 180.032 71.1365 180.125 70.6468H181.924C181.804 71.5601 181.351 72.288 180.565 72.8307C179.792 73.3601 178.827 73.6248 177.668 73.6248ZM180.205 67.2121V66.4775C180.205 65.6172 179.986 64.9554 179.546 64.4921C179.12 64.0289 178.494 63.7973 177.668 63.7973C176.855 63.7973 176.229 64.0289 175.789 64.4921C175.35 64.9554 175.13 65.6172 175.13 66.4775V67.0533H180.345L180.205 67.2121Z" fill="#ECEFF3"/>
<path d="M159.072 73.4264L155.395 62.5068H157.233L159.671 69.8527C159.818 70.2895 159.951 70.713 160.071 71.1233C160.191 71.5204 160.277 71.8315 160.33 72.0565C160.397 71.8315 160.49 71.5204 160.61 71.1233C160.73 70.713 160.857 70.2895 160.99 69.8527L163.368 62.5068H165.186L161.509 73.4264H159.072Z" fill="#ECEFF3"/>
<path d="M138.617 73.4263V71.7983H142.514V64.1348H139.117V62.5068H144.312V71.7983H148.009V73.4263H138.617ZM143.213 60.5413C142.773 60.5413 142.427 60.4288 142.174 60.2038C141.921 59.9788 141.794 59.6743 141.794 59.2905C141.794 58.8934 141.921 58.5824 142.174 58.3574C142.427 58.1191 142.773 58 143.213 58C143.653 58 143.999 58.1191 144.252 58.3574C144.505 58.5824 144.632 58.8934 144.632 59.2905C144.632 59.6743 144.505 59.9788 144.252 60.2038C143.999 60.4288 143.653 60.5413 143.213 60.5413Z" fill="#ECEFF3"/>
<path d="M126.735 73.4263C125.789 73.4263 125.05 73.1748 124.517 72.6719C123.998 72.1689 123.738 71.4608 123.738 70.5475V64.1348H120.641V62.5068H123.738V59.4294H125.536V62.5068H129.933V64.1348H125.536V70.5475C125.536 71.3814 125.936 71.7983 126.735 71.7983H129.733V73.4263H126.735Z" fill="#ECEFF3"/>
<path d="M108.239 73.6248C107.36 73.6248 106.587 73.4594 105.921 73.1285C105.268 72.7976 104.762 72.3211 104.402 71.699C104.043 71.0637 103.863 70.3159 103.863 69.4556V66.4775C103.863 65.6039 104.043 64.8561 104.402 64.234C104.762 63.612 105.268 63.1355 105.921 62.8046C106.587 62.4737 107.36 62.3082 108.239 62.3082C109.505 62.3082 110.524 62.6457 111.296 63.3208C112.069 63.9958 112.475 64.9157 112.515 66.0804H110.717C110.677 65.3789 110.437 64.8429 109.998 64.4723C109.571 64.0884 108.985 63.8965 108.239 63.8965C107.453 63.8965 106.827 64.1215 106.361 64.5716C105.894 65.0083 105.661 65.637 105.661 66.4577V69.4556C105.661 70.2762 105.894 70.9115 106.361 71.3615C106.827 71.8115 107.453 72.0365 108.239 72.0365C108.985 72.0365 109.571 71.8446 109.998 71.4608C110.437 71.077 110.677 70.5409 110.717 69.8526H112.515C112.475 71.0174 112.069 71.9373 111.296 72.6123C110.524 73.2873 109.505 73.6248 108.239 73.6248Z" fill="#ECEFF3"/>
<path d="M89.8229 73.6248C88.6639 73.6248 87.7514 73.3337 87.0853 72.7513C86.4192 72.1557 86.0862 71.3549 86.0862 70.349C86.0862 69.3298 86.4192 68.5291 87.0853 67.9467C87.7514 67.3643 88.6506 67.0731 89.783 67.0731H93.18V65.9812C93.18 65.3061 92.9735 64.7899 92.5606 64.4326C92.1609 64.062 91.5881 63.8767 90.842 63.8767C90.1893 63.8767 89.6431 64.0156 89.2035 64.2936C88.7639 64.5583 88.5107 64.9223 88.4441 65.3856H86.6457C86.7656 64.4458 87.2119 63.698 87.9845 63.1421C88.7572 62.5862 89.723 62.3082 90.882 62.3082C92.1476 62.3082 93.1467 62.6325 93.8794 63.2811C94.6121 63.9296 94.9785 64.8098 94.9785 65.9216V73.4263H93.22V71.3417H92.9202L93.22 71.0439C93.22 71.838 92.9069 72.4667 92.2808 72.93C91.668 73.3932 90.8487 73.6248 89.8229 73.6248ZM90.2626 72.2152C91.1151 72.2152 91.8145 72.0035 92.3607 71.5799C92.9069 71.1564 93.18 70.6137 93.18 69.9519V68.4033H89.8229C89.2235 68.4033 88.7505 68.5688 88.4042 68.8997C88.0578 69.2306 87.8846 69.6806 87.8846 70.2497C87.8846 70.8586 88.0911 71.3417 88.5041 71.699C88.9304 72.0432 89.5165 72.2152 90.2626 72.2152Z" fill="#ECEFF3"/>
<path d="M69.6283 73.4263V62.5068H71.3868V64.5914H71.8064L71.2269 65.8819C71.2269 64.7039 71.48 63.8171 71.9862 63.2215C72.5058 62.6127 73.2718 62.3082 74.2842 62.3082C75.4432 62.3082 76.3624 62.6722 77.0419 63.4002C77.7346 64.1149 78.081 65.0877 78.081 66.3187V66.9739H76.2825V66.4775C76.2825 65.6172 76.0694 64.962 75.6431 64.512C75.2301 64.0487 74.6373 63.8171 73.8646 63.8171C73.1053 63.8171 72.5058 64.0487 72.0662 64.512C71.6399 64.9752 71.4267 65.6304 71.4267 66.4775V73.4263H69.6283Z" fill="#ECEFF3"/>
<path d="M56.028 73.6248C55.162 73.6248 54.4027 73.4528 53.7499 73.1086C53.1105 72.7645 52.6109 72.2814 52.2512 71.6593C51.9049 71.024 51.7317 70.2894 51.7317 69.4556V66.4775C51.7317 65.6304 51.9049 64.8958 52.2512 64.2737C52.6109 63.6517 53.1105 63.1686 53.7499 62.8244C54.4027 62.4803 55.162 62.3082 56.028 62.3082C56.8939 62.3082 57.6466 62.4803 58.286 62.8244C58.9388 63.1686 59.4383 63.6517 59.7847 64.2737C60.1444 64.8958 60.3242 65.6304 60.3242 66.4775V68.4033H53.4902V69.4556C53.4902 70.3159 53.71 70.9777 54.1496 71.4409C54.5892 71.891 55.2153 72.116 56.028 72.116C56.7207 72.116 57.2802 71.9968 57.7065 71.7586C58.1328 71.5071 58.3926 71.1365 58.4858 70.6468H60.2843C60.1644 71.5601 59.7114 72.288 58.9254 72.8307C58.1528 73.3601 57.187 73.6248 56.028 73.6248ZM58.5658 67.2121V66.4775C58.5658 65.6172 58.3459 64.9554 57.9063 64.4921C57.48 64.0289 56.8539 63.7973 56.028 63.7973C55.2153 63.7973 54.5892 64.0289 54.1496 64.4921C53.71 64.9554 53.4902 65.6172 53.4902 66.4775V67.0533H58.7056L58.5658 67.2121Z" fill="#ECEFF3"/>
<path d="M39.8498 73.4263C38.904 73.4263 38.1646 73.1748 37.6318 72.6719C37.1122 72.1689 36.8524 71.4608 36.8524 70.5475V64.1348H33.7551V62.5068H36.8524V59.4294H38.6509V62.5068H43.0471V64.1348H38.6509V70.5475C38.6509 71.3814 39.0505 71.7983 39.8498 71.7983H42.8472V73.4263H39.8498Z" fill="#ECEFF3"/>
<path d="M17.1173 73.4263V62.5068H18.9157V64.5914H19.2954L18.9157 65.0083C18.9157 64.148 19.1755 63.4862 19.6951 63.023C20.2146 62.5465 20.934 62.3082 21.8532 62.3082C22.9589 62.3082 23.8381 62.6457 24.4909 63.3208C25.1437 63.9958 25.4701 64.9157 25.4701 66.0804V73.4263H23.6716V66.279C23.6716 65.4981 23.4585 64.9024 23.0322 64.4921C22.6192 64.0686 22.053 63.8568 21.3336 63.8568C20.5876 63.8568 19.9948 64.0818 19.5552 64.5318C19.1289 64.9819 18.9157 65.6304 18.9157 66.4775V73.4263H17.1173Z" fill="#ECEFF3"/>
<path d="M0 73.4263V71.7983H2.97741V60.5611H0V58.9331H7.79323V60.5611H4.81582V71.7983H7.79323V73.4263H0Z" fill="#ECEFF3"/>
</svg>
