<svg width="440" height="80" viewBox="0 0 440 80" fill="none" xmlns="http://www.w3.org/2000/svg">
<path d="M0 76.2579V75.0689H3.03925V62.9815H0V61.7926H7.38954V62.9815H4.37016V75.0689H7.38954V76.2579H0Z" fill="#ECEFF3"/>
<path d="M17.0557 76.2579V65.3594H18.3668V67.3211H18.7839L18.2873 68.0939C18.2873 67.1824 18.5588 66.4691 19.1017 65.9539C19.6579 65.4254 20.4062 65.1612 21.3464 65.1612C22.4323 65.1612 23.2997 65.5047 23.9486 66.1916C24.5975 66.8654 24.922 67.7901 24.922 68.9658V76.2579H23.611V69.1243C23.611 68.226 23.3792 67.5325 22.9157 67.0437C22.4522 66.5417 21.8232 66.2907 21.0286 66.2907C20.2075 66.2907 19.5586 66.5483 19.0819 67.0635C18.6051 67.5787 18.3668 68.2921 18.3668 69.2036V76.2579H17.0557Z" fill="#ECEFF3"/>
<path d="M39.4351 76.2579C38.561 76.2579 37.8857 76.0333 37.4089 75.5841C36.9322 75.1218 36.6938 74.4679 36.6938 73.6224V66.5483H33.5552V65.3594H36.6938V62.288H38.0048V65.3594H42.4346V66.5483H38.0048V73.6224C38.0048 74.5868 38.4816 75.0689 39.4351 75.0689H42.236V76.2579H39.4351Z" fill="#ECEFF3"/>
<path d="M55.5373 76.456C54.703 76.456 53.9813 76.2909 53.3721 75.9606C52.7629 75.6304 52.2928 75.1614 51.9617 74.5537C51.6439 73.9461 51.485 73.2327 51.485 72.4137V69.2036C51.485 68.3845 51.6439 67.6778 51.9617 67.0833C52.2928 66.4757 52.7629 66.0067 53.3721 65.6764C53.9813 65.333 54.703 65.1612 55.5373 65.1612C56.3584 65.1612 57.0669 65.333 57.6628 65.6764C58.272 66.0067 58.7355 66.4757 59.0533 67.0833C59.3844 67.6778 59.5499 68.3845 59.5499 69.2036V71.1059H52.7762V72.4137C52.7762 73.3252 53.0145 74.0385 53.4913 74.5537C53.968 75.0689 54.65 75.3265 55.5373 75.3265C56.2524 75.3265 56.8351 75.1746 57.2854 74.8708C57.7489 74.5537 58.0601 74.1112 58.219 73.5432H59.53C59.3579 74.4415 58.9142 75.1548 58.1991 75.6832C57.4973 76.1984 56.61 76.456 55.5373 76.456ZM58.2587 70.2142V69.2036C58.2587 68.2921 58.0204 67.5787 57.5436 67.0635C57.0801 66.5351 56.4113 66.2709 55.5373 66.2709C54.65 66.2709 53.968 66.5285 53.4913 67.0437C53.0145 67.5589 52.7762 68.2789 52.7762 69.2036V70.0556H58.4375L58.2587 70.2142Z" fill="#ECEFF3"/>
<path d="M69.2359 76.2579V65.3594H70.5271V67.3211H70.8251L70.3285 68.5299C70.3417 67.473 70.6198 66.6474 71.1628 66.0529C71.719 65.4585 72.4871 65.1612 73.4671 65.1612C74.6324 65.1612 75.5528 65.5179 76.2282 66.2313C76.9036 66.9446 77.2413 67.9156 77.2413 69.1441V69.7584H75.8706V69.2036C75.8706 68.2789 75.6389 67.5589 75.1754 67.0437C74.7119 66.5285 74.0564 66.2709 73.2088 66.2709C72.3745 66.2709 71.719 66.5285 71.2422 67.0437C70.7787 67.5589 70.547 68.2789 70.547 69.2036V76.2579H69.2359Z" fill="#ECEFF3"/>
<path d="M89.311 76.456C88.1722 76.456 87.265 76.1588 86.5896 75.5643C85.9275 74.9699 85.5964 74.1839 85.5964 73.2063C85.5964 72.2287 85.9142 71.4559 86.5499 70.8879C87.1988 70.3199 88.053 70.0358 89.1124 70.0358H92.7079V68.8271C92.7079 68.0345 92.4827 67.4202 92.0325 66.9843C91.5954 66.5483 90.9664 66.3303 90.1454 66.3303C89.4038 66.3303 88.7946 66.5021 88.3178 66.8455C87.8411 67.189 87.5564 67.6514 87.4637 68.2326H86.1526C86.2718 67.3079 86.6956 66.5681 87.4239 66.0133C88.1655 65.4453 89.0727 65.1612 90.1454 65.1612C91.324 65.1612 92.2642 65.4915 92.9661 66.152C93.668 66.8125 94.0189 67.6976 94.0189 68.8073V76.2579H92.7277V74.098H92.5092L92.8072 73.7413C92.8072 74.5603 92.4893 75.2209 91.8537 75.7229C91.218 76.2116 90.3705 76.456 89.311 76.456ZM89.6487 75.3662C90.5625 75.3662 91.2975 75.135 91.8537 74.6726C92.4231 74.2103 92.7079 73.6158 92.7079 72.8893V71.086H89.1124C88.4503 71.086 87.9139 71.271 87.5034 71.6409C87.1061 72.0108 86.9075 72.4995 86.9075 73.1072C86.9075 73.7942 87.1525 74.3424 87.6424 74.7519C88.1457 75.1614 88.8144 75.3662 89.6487 75.3662Z" fill="#ECEFF3"/>
<path d="M107.4 76.456C106.565 76.456 105.837 76.2975 105.215 75.9805C104.605 75.6502 104.135 75.1812 103.804 74.5736C103.473 73.9659 103.308 73.2459 103.308 72.4137V69.2036C103.308 68.3713 103.473 67.658 103.804 67.0635C104.135 66.4558 104.605 65.9869 105.215 65.6566C105.837 65.3264 106.565 65.1612 107.4 65.1612C108.618 65.1612 109.591 65.5047 110.32 66.1916C111.061 66.8654 111.439 67.7769 111.452 68.9262H110.141C110.128 68.1071 109.876 67.473 109.386 67.0239C108.909 66.5747 108.247 66.3502 107.4 66.3502C106.539 66.3502 105.857 66.6012 105.354 67.1031C104.864 67.5919 104.619 68.2921 104.619 69.2036V72.4137C104.619 73.312 104.864 74.0121 105.354 74.5141C105.857 75.0161 106.539 75.2671 107.4 75.2671C108.247 75.2671 108.909 75.0425 109.386 74.5934C109.876 74.131 110.128 73.4969 110.141 72.6911H111.452C111.439 73.8404 111.061 74.7585 110.32 75.4454C109.591 76.1192 108.618 76.456 107.4 76.456Z" fill="#ECEFF3"/>
<path d="M125.806 76.2579C124.932 76.2579 124.257 76.0333 123.78 75.5841C123.303 75.1218 123.065 74.4679 123.065 73.6224V66.5483H119.926V65.3594H123.065V62.288H124.376V65.3594H128.806V66.5483H124.376V73.6224C124.376 74.5868 124.853 75.0689 125.806 75.0689H128.607V76.2579H125.806Z" fill="#ECEFF3"/>
<path d="M137.737 76.2579V75.0689H141.69V66.5483H138.234V65.3594H143.001V75.0689H146.716V76.2579H137.737ZM142.187 63.3184C141.802 63.3184 141.498 63.2193 141.273 63.0212C141.048 62.8098 140.935 62.5258 140.935 62.1691C140.935 61.8124 141.048 61.5284 141.273 61.317C141.498 61.1057 141.802 61 142.187 61C142.571 61 142.875 61.1057 143.1 61.317C143.325 61.5284 143.438 61.8124 143.438 62.1691C143.438 62.5258 143.325 62.8098 143.1 63.0212C142.875 63.2193 142.571 63.3184 142.187 63.3184Z" fill="#ECEFF3"/>
<path d="M158.309 76.2579L154.554 65.3594H155.925L158.567 73.1667C158.699 73.5498 158.818 73.9395 158.924 74.3358C159.044 74.7321 159.13 75.0425 159.183 75.2671C159.249 75.0425 159.342 74.7321 159.461 74.3358C159.593 73.9395 159.719 73.5498 159.838 73.1667L162.44 65.3594H163.771L160.017 76.2579H158.309Z" fill="#ECEFF3"/>
<path d="M176.457 76.456C175.623 76.456 174.901 76.2909 174.292 75.9606C173.682 75.6304 173.212 75.1614 172.881 74.5537C172.563 73.9461 172.405 73.2327 172.405 72.4137V69.2036C172.405 68.3845 172.563 67.6778 172.881 67.0833C173.212 66.4757 173.682 66.0067 174.292 65.6764C174.901 65.333 175.623 65.1612 176.457 65.1612C177.278 65.1612 177.986 65.333 178.582 65.6764C179.192 66.0067 179.655 66.4757 179.973 67.0833C180.304 67.6778 180.469 68.3845 180.469 69.2036V71.1059H173.696V72.4137C173.696 73.3252 173.934 74.0385 174.411 74.5537C174.888 75.0689 175.57 75.3265 176.457 75.3265C177.172 75.3265 177.755 75.1746 178.205 74.8708C178.668 74.5537 178.98 74.1112 179.139 73.5432H180.45C180.277 74.4415 179.834 75.1548 179.119 75.6832C178.417 76.1984 177.53 76.456 176.457 76.456ZM179.178 70.2142V69.2036C179.178 68.2921 178.94 67.5787 178.463 67.0635C178 66.5351 177.331 66.2709 176.457 66.2709C175.57 66.2709 174.888 66.5285 174.411 67.0437C173.934 67.5589 173.696 68.2789 173.696 69.2036V70.0556H179.357L179.178 70.2142Z" fill="#ECEFF3"/>
<path d="M206.496 76.2579V65.3594H207.648V66.7663H207.867L207.708 67.123C207.708 66.5285 207.873 66.0529 208.204 65.6963C208.536 65.3396 208.986 65.1612 209.555 65.1612C210.138 65.1612 210.601 65.3528 210.946 65.7359C211.29 66.119 211.489 66.6606 211.542 67.3607L211.204 66.7663H211.701L211.462 67.123C211.462 66.5417 211.634 66.0727 211.979 65.7161C212.336 65.3462 212.8 65.1612 213.369 65.1612C214.031 65.1612 214.548 65.4056 214.919 65.8944C215.289 66.37 215.475 67.0107 215.475 67.8165V76.2579H214.243V67.8759C214.243 67.3607 214.124 66.9578 213.886 66.6672C213.661 66.3634 213.343 66.2115 212.932 66.2115C212.508 66.2115 212.171 66.3634 211.919 66.6672C211.681 66.9578 211.562 67.3607 211.562 67.8759V76.2579H210.409V67.8759C210.409 67.3607 210.29 66.9578 210.052 66.6672C209.827 66.3634 209.509 66.2115 209.098 66.2115C208.688 66.2115 208.357 66.3634 208.105 66.6672C207.854 66.9578 207.728 67.3607 207.728 67.8759V76.2579H206.496Z" fill="#ECEFF3"/>
<path d="M228.28 76.456C227.445 76.456 226.724 76.2909 226.114 75.9606C225.505 75.6304 225.035 75.1614 224.704 74.5537C224.386 73.9461 224.227 73.2327 224.227 72.4137V69.2036C224.227 68.3845 224.386 67.6778 224.704 67.0833C225.035 66.4757 225.505 66.0067 226.114 65.6764C226.724 65.333 227.445 65.1612 228.28 65.1612C229.101 65.1612 229.809 65.333 230.405 65.6764C231.014 66.0067 231.478 66.4757 231.796 67.0833C232.127 67.6778 232.292 68.3845 232.292 69.2036V71.1059H225.518V72.4137C225.518 73.3252 225.757 74.0385 226.234 74.5537C226.71 75.0689 227.392 75.3265 228.28 75.3265C228.995 75.3265 229.577 75.1746 230.028 74.8708C230.491 74.5537 230.802 74.1112 230.961 73.5432H232.272C232.1 74.4415 231.656 75.1548 230.941 75.6832C230.239 76.1984 229.352 76.456 228.28 76.456ZM231.001 70.2142V69.2036C231.001 68.2921 230.763 67.5787 230.286 67.0635C229.822 66.5351 229.154 66.2709 228.28 66.2709C227.392 66.2709 226.71 66.5285 226.234 67.0437C225.757 67.5589 225.518 68.2789 225.518 69.2036V70.0556H231.18L231.001 70.2142Z" fill="#ECEFF3"/>
<path d="M245.117 76.456C244.031 76.456 243.157 76.0993 242.495 75.386C241.833 74.6594 241.501 73.6885 241.501 72.4731V69.164C241.501 67.9486 241.833 66.9777 242.495 66.2511C243.157 65.5245 244.031 65.1612 245.117 65.1612C246.057 65.1612 246.812 65.4254 247.381 65.9539C247.964 66.4691 248.255 67.156 248.255 68.0147L247.779 67.0833H248.156L248.136 64.8442V61.7926H249.447V76.2579H248.136V74.5339H247.659L248.255 73.6026C248.255 74.4745 247.964 75.168 247.381 75.6832C246.812 76.1984 246.057 76.456 245.117 76.456ZM245.474 75.3265C246.322 75.3265 246.977 75.0689 247.441 74.5537C247.904 74.0385 248.136 73.3318 248.136 72.4335V69.2036C248.136 68.2921 247.904 67.5787 247.441 67.0635C246.977 66.5483 246.322 66.2907 245.474 66.2907C244.64 66.2907 243.985 66.5483 243.508 67.0635C243.044 67.5655 242.812 68.2789 242.812 69.2036V72.4335C242.812 73.345 243.044 74.0584 243.508 74.5736C243.985 75.0756 244.64 75.3265 245.474 75.3265Z" fill="#ECEFF3"/>
<path d="M258.656 76.2579V75.0689H262.609V66.5483H259.153V65.3594H263.921V75.0689H267.635V76.2579H258.656ZM263.106 63.3184C262.722 63.3184 262.417 63.2193 262.192 63.0212C261.967 62.8098 261.855 62.5258 261.855 62.1691C261.855 61.8124 261.967 61.5284 262.192 61.317C262.417 61.1057 262.722 61 263.106 61C263.49 61 263.795 61.1057 264.02 61.317C264.245 61.5284 264.358 61.8124 264.358 62.1691C264.358 62.5258 264.245 62.8098 264.02 63.0212C263.795 63.2193 263.49 63.3184 263.106 63.3184Z" fill="#ECEFF3"/>
<path d="M279.327 76.456C278.189 76.456 277.281 76.1588 276.606 75.5643C275.944 74.9699 275.613 74.1839 275.613 73.2063C275.613 72.2287 275.931 71.4559 276.566 70.8879C277.215 70.3199 278.069 70.0358 279.129 70.0358H282.724V68.8271C282.724 68.0345 282.499 67.4202 282.049 66.9843C281.612 66.5483 280.983 66.3303 280.162 66.3303C279.42 66.3303 278.811 66.5021 278.334 66.8455C277.858 67.189 277.573 67.6514 277.48 68.2326H276.169C276.288 67.3079 276.712 66.5681 277.44 66.0133C278.182 65.4453 279.089 65.1612 280.162 65.1612C281.34 65.1612 282.281 65.4915 282.983 66.152C283.684 66.8125 284.035 67.6976 284.035 68.8073V76.2579H282.744V74.098H282.526L282.824 73.7413C282.824 74.5603 282.506 75.2209 281.87 75.7229C281.234 76.2116 280.387 76.456 279.327 76.456ZM279.665 75.3662C280.579 75.3662 281.314 75.135 281.87 74.6726C282.44 74.2103 282.724 73.6158 282.724 72.8893V71.086H279.129C278.467 71.086 277.93 71.271 277.52 71.6409C277.123 72.0108 276.924 72.4995 276.924 73.1072C276.924 73.7942 277.169 74.3424 277.659 74.7519C278.162 75.1614 278.831 75.3662 279.665 75.3662Z" fill="#ECEFF3"/>
<path d="M314.214 76.456C313.128 76.456 312.254 76.0993 311.592 75.386C310.929 74.6594 310.598 73.6885 310.598 72.4731V69.164C310.598 67.9486 310.929 66.9777 311.592 66.2511C312.254 65.5245 313.128 65.1612 314.214 65.1612C315.154 65.1612 315.909 65.4254 316.478 65.9539C317.061 66.4691 317.352 67.156 317.352 68.0147L316.876 67.0833H317.253L317.233 64.8442V61.7926H318.544V76.2579H317.233V74.5339H316.756L317.352 73.6026C317.352 74.4745 317.061 75.168 316.478 75.6832C315.909 76.1984 315.154 76.456 314.214 76.456ZM314.571 75.3265C315.419 75.3265 316.074 75.0689 316.538 74.5537C317.001 74.0385 317.233 73.3318 317.233 72.4335V69.2036C317.233 68.2921 317.001 67.5787 316.538 67.0635C316.074 66.5483 315.419 66.2907 314.571 66.2907C313.737 66.2907 313.081 66.5483 312.605 67.0635C312.141 67.5655 311.909 68.2789 311.909 69.2036V72.4335C311.909 73.345 312.141 74.0584 312.605 74.5736C313.081 75.0756 313.737 75.3265 314.571 75.3265Z" fill="#ECEFF3"/>
<path d="M331.925 76.456C331.091 76.456 330.369 76.2909 329.76 75.9606C329.151 75.6304 328.68 75.1614 328.349 74.5537C328.032 73.9461 327.873 73.2327 327.873 72.4137V69.2036C327.873 68.3845 328.032 67.6778 328.349 67.0833C328.68 66.4757 329.151 66.0067 329.76 65.6764C330.369 65.333 331.091 65.1612 331.925 65.1612C332.746 65.1612 333.454 65.333 334.05 65.6764C334.66 66.0067 335.123 66.4757 335.441 67.0833C335.772 67.6778 335.938 68.3845 335.938 69.2036V71.1059H329.164V72.4137C329.164 73.3252 329.402 74.0385 329.879 74.5537C330.356 75.0689 331.038 75.3265 331.925 75.3265C332.64 75.3265 333.223 75.1746 333.673 74.8708C334.136 74.5537 334.448 74.1112 334.607 73.5432H335.918C335.745 74.4415 335.302 75.1548 334.587 75.6832C333.885 76.1984 332.998 76.456 331.925 76.456ZM334.646 70.2142V69.2036C334.646 68.2921 334.408 67.5787 333.931 67.0635C333.468 66.5351 332.799 66.2709 331.925 66.2709C331.038 66.2709 330.356 66.5285 329.879 67.0437C329.402 67.5589 329.164 68.2789 329.164 69.2036V70.0556H334.825L334.646 70.2142Z" fill="#ECEFF3"/>
<path d="M348.703 76.4362C348.014 76.4362 347.405 76.3173 346.875 76.0795C346.359 75.8417 345.941 75.5115 345.624 75.0888C345.306 74.6528 345.114 74.1508 345.047 73.5828H346.359C346.451 74.0716 346.703 74.4745 347.113 74.7915C347.537 75.1086 348.067 75.2671 348.703 75.2671H349.835C350.563 75.2671 351.119 75.102 351.503 74.7717C351.901 74.4282 352.099 73.9725 352.099 73.4044C352.099 72.876 351.934 72.4401 351.603 72.0966C351.272 71.74 350.815 71.522 350.232 71.4427L348.365 71.1653C347.372 71.02 346.617 70.7029 346.1 70.2142C345.584 69.7122 345.326 69.0318 345.326 68.1732C345.326 67.2485 345.637 66.5219 346.259 65.9935C346.895 65.4519 347.776 65.1811 348.901 65.1811H349.696C350.715 65.1811 351.537 65.4254 352.159 65.9142C352.795 66.403 353.165 67.0569 353.271 67.8759H351.96C351.881 67.4268 351.642 67.0635 351.245 66.7861C350.848 66.4955 350.331 66.3502 349.696 66.3502H348.901C348.186 66.3502 347.63 66.5153 347.233 66.8455C346.848 67.1626 346.656 67.6051 346.656 68.1732C346.656 68.6752 346.815 69.0715 347.133 69.3621C347.451 69.6395 347.928 69.8311 348.563 69.9368L350.391 70.1944C351.371 70.3397 352.113 70.6765 352.616 71.2049C353.132 71.7201 353.39 72.4137 353.39 73.2856C353.39 74.2499 353.079 75.0161 352.457 75.5841C351.848 76.1522 350.974 76.4362 349.835 76.4362H348.703Z" fill="#ECEFF3"/>
<path d="M362.302 76.2579V75.0689H366.255V66.5483H362.798V65.3594H367.566V75.0689H371.281V76.2579H362.302ZM366.751 63.3184C366.367 63.3184 366.063 63.2193 365.838 63.0212C365.613 62.8098 365.5 62.5258 365.5 62.1691C365.5 61.8124 365.613 61.5284 365.838 61.317C366.063 61.1057 366.367 61 366.751 61C367.135 61 367.44 61.1057 367.665 61.317C367.89 61.5284 368.003 61.8124 368.003 62.1691C368.003 62.5258 367.89 62.8098 367.665 63.0212C367.44 63.2193 367.135 63.3184 366.751 63.3184Z" fill="#ECEFF3"/>
<path d="M381.125 79.8246V78.6357H384.244C384.933 78.6357 385.449 78.464 385.794 78.1205C386.151 77.7771 386.33 77.2685 386.33 76.5947V75.5049L386.35 73.345H385.992L386.409 72.6911C386.409 73.5498 386.131 74.2367 385.575 74.7519C385.019 75.2539 384.277 75.5049 383.35 75.5049C382.238 75.5049 381.351 75.1416 380.688 74.415C380.04 73.6885 379.715 72.7241 379.715 71.522V69.164C379.715 67.9486 380.04 66.9777 380.688 66.2511C381.351 65.5245 382.238 65.1612 383.35 65.1612C384.277 65.1612 385.019 65.4188 385.575 65.934C386.131 66.436 386.409 67.1164 386.409 67.975L386.052 67.3211H386.33V65.3594H387.641V76.5947C387.641 77.6383 387.343 78.4376 386.747 78.9924C386.164 79.5472 385.323 79.8246 384.224 79.8246H381.125ZM383.668 74.3754C384.516 74.3754 385.171 74.1178 385.635 73.6026C386.098 73.0874 386.33 72.3807 386.33 71.4824V69.2036C386.33 68.2921 386.098 67.5787 385.635 67.0635C385.171 66.5483 384.516 66.2907 383.668 66.2907C382.834 66.2907 382.185 66.5483 381.721 67.0635C381.258 67.5655 381.026 68.2789 381.026 69.2036V71.4824C381.026 72.3939 381.258 73.1072 381.721 73.6224C382.185 74.1244 382.834 74.3754 383.668 74.3754Z" fill="#ECEFF3"/>
<path d="M397.089 76.2579V65.3594H398.4V67.3211H398.817L398.32 68.0939C398.32 67.1824 398.592 66.4691 399.135 65.9539C399.691 65.4254 400.439 65.1612 401.379 65.1612C402.465 65.1612 403.333 65.5047 403.982 66.1916C404.631 66.8654 404.955 67.7901 404.955 68.9658V76.2579H403.644V69.1243C403.644 68.226 403.412 67.5325 402.949 67.0437C402.485 66.5417 401.856 66.2907 401.062 66.2907C400.24 66.2907 399.592 66.5483 399.115 67.0635C398.638 67.5787 398.4 68.2921 398.4 69.2036V76.2579H397.089Z" fill="#ECEFF3"/>
<path d="M418.296 76.456C417.462 76.456 416.74 76.2909 416.131 75.9606C415.522 75.6304 415.052 75.1614 414.72 74.5537C414.403 73.9461 414.244 73.2327 414.244 72.4137V69.2036C414.244 68.3845 414.403 67.6778 414.72 67.0833C415.052 66.4757 415.522 66.0067 416.131 65.6764C416.74 65.333 417.462 65.1612 418.296 65.1612C419.117 65.1612 419.826 65.333 420.422 65.6764C421.031 66.0067 421.494 66.4757 421.812 67.0833C422.143 67.6778 422.309 68.3845 422.309 69.2036V71.1059H415.535V72.4137C415.535 73.3252 415.773 74.0385 416.25 74.5537C416.727 75.0689 417.409 75.3265 418.296 75.3265C419.011 75.3265 419.594 75.1746 420.044 74.8708C420.508 74.5537 420.819 74.1112 420.978 73.5432H422.289C422.117 74.4415 421.673 75.1548 420.958 75.6832C420.256 76.1984 419.369 76.456 418.296 76.456ZM421.017 70.2142V69.2036C421.017 68.2921 420.779 67.5787 420.302 67.0635C419.839 66.5351 419.17 66.2709 418.296 66.2709C417.409 66.2709 416.727 66.5285 416.25 67.0437C415.773 67.5589 415.535 68.2789 415.535 69.2036V70.0556H421.196L421.017 70.2142Z" fill="#ECEFF3"/>
<path d="M431.995 76.2579V65.3594H433.286V67.3211H433.584L433.087 68.5299C433.1 67.473 433.379 66.6474 433.921 66.0529C434.478 65.4585 435.246 65.1612 436.226 65.1612C437.391 65.1612 438.312 65.5179 438.987 66.2313C439.662 66.9446 440 67.9156 440 69.1441V69.7584H438.629V69.2036C438.629 68.2789 438.398 67.5589 437.934 67.0437C437.471 66.5285 436.815 66.2709 435.968 66.2709C435.133 66.2709 434.478 66.5285 434.001 67.0437C433.537 67.5589 433.306 68.2789 433.306 69.2036V76.2579H431.995Z" fill="#ECEFF3"/>
<path d="M390.523 46.5667L408.153 0H412.225L409.097 8.32256L437.95 22.6393V26.8997L416.745 37.6992V33.7361L431.891 26.2062C432.52 25.9089 433.133 25.6447 433.729 25.4135C434.358 25.1493 434.821 24.9677 435.119 24.8686C434.788 24.7365 434.308 24.5549 433.679 24.3237C433.083 24.0925 432.487 23.8118 431.891 23.4815L407.855 11.5921L394.596 46.5667H390.523Z" fill="#61AFEF"/>
<path d="M239.174 41.117V4.95385H250.844C253.427 4.95385 255.661 5.39969 257.549 6.29139C259.436 7.18308 260.892 8.45457 261.919 10.1059C262.978 11.7571 263.508 13.7057 263.508 15.9514C263.508 18.2962 262.929 20.3934 261.77 22.2428C260.644 24.0922 259.105 25.4298 257.151 26.2554L264.005 41.117H255.91L250.05 27.4443H246.574V41.117H239.174ZM246.574 21.0043H250.844C252.5 21.0043 253.774 20.5915 254.668 19.7659C255.595 18.9402 256.059 17.7843 256.059 16.2982C256.059 14.746 255.595 13.5405 254.668 12.6819C253.774 11.8232 252.5 11.3939 250.844 11.3939H246.574V21.0043Z" fill="#61AFEF"/>
<path d="M280.621 41.6124C278.205 41.6124 276.102 41.1665 274.315 40.2748C272.527 39.3501 271.136 38.0786 270.143 36.4604C269.183 34.8091 268.703 32.8936 268.703 30.7139V24.2739C268.703 22.0942 269.183 20.1952 270.143 18.5769C271.136 16.9257 272.527 15.6542 274.315 14.7625C276.102 13.8378 278.205 13.3754 280.621 13.3754C283.071 13.3754 285.174 13.8378 286.928 14.7625C288.716 15.6542 290.09 16.9257 291.05 18.5769C292.043 20.1952 292.54 22.0942 292.54 24.2739V30.7139C292.54 32.8936 292.043 34.8091 291.05 36.4604C290.09 38.0786 288.716 39.3501 286.928 40.2748C285.174 41.1665 283.071 41.6124 280.621 41.6124ZM280.621 35.1723C282.078 35.1723 283.187 34.7926 283.949 34.033C284.71 33.2403 285.091 32.134 285.091 30.7139V24.2739C285.091 22.8207 284.71 21.7144 283.949 20.9548C283.187 20.1952 282.078 19.8154 280.621 19.8154C279.198 19.8154 278.089 20.1952 277.294 20.9548C276.533 21.7144 276.152 22.8207 276.152 24.2739V30.7139C276.152 32.134 276.533 33.2403 277.294 34.033C278.089 34.7926 279.198 35.1723 280.621 35.1723Z" fill="#61AFEF"/>
<path d="M298.48 50.0339V43.0985H307.171C308.528 43.0985 309.571 42.7187 310.299 41.9591C311.028 41.2326 311.392 40.2088 311.392 38.8877V20.8062H299.473V13.8708H318.841V39.1354C318.841 42.5041 317.848 45.1626 315.861 47.1111C313.875 49.0597 311.16 50.0339 307.717 50.0339H298.48ZM315.116 9.56093C313.759 9.56093 312.666 9.21416 311.839 8.52062C311.044 7.82708 310.647 6.88585 310.647 5.69692C310.647 4.508 311.044 3.56677 311.839 2.87323C312.666 2.17969 313.759 1.83292 315.116 1.83292C316.474 1.83292 317.55 2.17969 318.344 2.87323C319.172 3.56677 319.586 4.508 319.586 5.69692C319.586 6.88585 319.172 7.82708 318.344 8.52062C317.55 9.21416 316.474 9.56093 315.116 9.56093Z" fill="#61AFEF"/>
<path d="M336.65 41.6124C333.902 41.6124 331.717 40.8693 330.095 39.3831C328.505 37.897 327.711 35.8824 327.711 33.3394C327.711 30.5983 328.654 28.5012 330.542 27.048C332.462 25.5619 335.21 24.8188 338.785 24.8188H344.447V22.7877C344.447 21.7309 344.066 20.8887 343.304 20.2613C342.576 19.6338 341.583 19.32 340.325 19.32C339.166 19.32 338.206 19.5842 337.444 20.1126C336.683 20.641 336.219 21.3676 336.054 22.2923H328.853C329.151 19.5512 330.343 17.388 332.429 15.8028C334.548 14.1845 337.262 13.3754 340.573 13.3754C344.049 13.3754 346.797 14.2341 348.817 15.9514C350.869 17.6357 351.896 19.9145 351.896 22.7877V41.117H344.695V36.6585H343.503L344.745 34.9247C344.745 36.9722 344 38.607 342.51 39.829C341.053 41.0179 339.1 41.6124 336.65 41.6124ZM339.431 36.1631C340.888 36.1631 342.079 35.7833 343.006 35.0237C343.967 34.2311 344.447 33.2073 344.447 31.9523V29.0296H338.934C337.809 29.0296 336.898 29.3598 336.203 30.0203C335.508 30.6478 335.16 31.49 335.16 32.5468C335.16 33.6697 335.541 34.5614 336.302 35.2219C337.064 35.8494 338.107 36.1631 339.431 36.1631Z" fill="#61AFEF"/>
<path d="M368.811 41.6124C366.559 41.6124 364.589 41.2656 362.901 40.5721C361.213 39.8455 359.888 38.8547 358.928 37.5997C358.001 36.3448 357.538 34.8751 357.538 33.1908H364.987C364.987 33.9834 365.334 34.6274 366.03 35.1228C366.758 35.5852 367.685 35.8164 368.811 35.8164H370.996C372.353 35.8164 373.379 35.5687 374.075 35.0733C374.803 34.5779 375.167 33.8844 375.167 32.9927C375.167 32.167 374.853 31.5395 374.224 31.1102C373.595 30.6478 372.618 30.3341 371.294 30.169L368.115 29.7726C364.705 29.3433 362.222 28.5177 360.666 27.2957C359.11 26.0738 358.332 24.2078 358.332 21.6979C358.332 19.0558 359.243 17.0082 361.064 15.5551C362.884 14.102 365.55 13.3754 369.059 13.3754H370.946C374.29 13.3754 376.955 14.102 378.941 15.5551C380.928 17.0082 381.921 18.9567 381.921 21.4006H374.472C374.472 20.7401 374.141 20.2117 373.479 19.8154C372.85 19.3861 372.005 19.1714 370.946 19.1714H369.059C367.834 19.1714 366.94 19.3861 366.377 19.8154C365.814 20.2117 365.533 20.8227 365.533 21.6483C365.533 22.4079 365.781 22.9859 366.278 23.3822C366.808 23.7785 367.635 24.0592 368.761 24.2243L372.188 24.6702C375.631 25.0995 378.18 25.9582 379.835 27.2462C381.524 28.5342 382.368 30.4497 382.368 32.9927C382.368 35.7668 381.408 37.897 379.488 39.3831C377.568 40.8693 374.737 41.6124 370.996 41.6124H368.811Z" fill="#61AFEF"/>
<path d="M30.6354 41.117V4.95388H42.4051C44.9212 4.95388 47.1063 5.43275 48.9603 6.39049C50.8474 7.34824 52.3042 8.70229 53.3305 10.4527C54.3899 12.17 54.9196 14.2011 54.9196 16.5459V29.4754C54.9196 31.7872 54.3899 33.8183 53.3305 35.5687C52.3042 37.3191 50.8474 38.6896 48.9603 39.6804C47.1063 40.6381 44.9212 41.117 42.4051 41.117H30.6354ZM38.0846 34.1816H42.4051C43.928 34.1816 45.153 33.7523 46.08 32.8936C47.007 32.0349 47.4705 30.8956 47.4705 29.4754V16.5459C47.4705 15.1588 47.007 14.0359 46.08 13.1773C45.153 12.3186 43.928 11.8893 42.4051 11.8893H38.0846V34.1816Z" fill="#ECEFF3"/>
<path d="M68.6563 41.6124C65.9084 41.6124 63.7233 40.8693 62.1011 39.3832C60.5119 37.897 59.7173 35.8824 59.7173 33.3395C59.7173 30.5983 60.6609 28.5012 62.548 27.0481C64.4682 25.5619 67.2161 24.8188 70.7917 24.8188H76.4531V22.7877C76.4531 21.7309 76.0723 20.8888 75.3109 20.2613C74.5825 19.6338 73.5893 19.3201 72.3312 19.3201C71.1724 19.3201 70.2123 19.5843 69.4509 20.1127C68.6894 20.6411 68.2259 21.3676 68.0604 22.2924H60.8595C61.1575 19.5512 62.3494 17.388 64.4351 15.8028C66.554 14.1846 69.2688 13.3754 72.5795 13.3754C76.0558 13.3754 78.8037 14.2341 80.8232 15.9514C82.8759 17.6357 83.9022 19.9145 83.9022 22.7877V41.117H76.7014V36.6585H75.5095L76.751 34.9247C76.751 36.9723 76.0061 38.6071 74.5163 39.829C73.0596 41.0179 71.1062 41.6124 68.6563 41.6124ZM71.4373 36.1632C72.894 36.1632 74.0859 35.7834 75.0129 35.0238C75.973 34.2311 76.4531 33.2074 76.4531 31.9524V29.0296H70.9407C69.815 29.0296 68.9046 29.3599 68.2093 30.0204C67.5141 30.6479 67.1665 31.49 67.1665 32.5468C67.1665 33.6697 67.5472 34.5614 68.3087 35.2219C69.0701 35.8494 70.113 36.1632 71.4373 36.1632Z" fill="#ECEFF3"/>
<path d="M90.3387 41.117V13.8708H97.5395V19.0724H99.7246L97.5395 20.8062C97.5395 18.5605 98.2017 16.7606 99.526 15.4065C100.85 14.0525 102.638 13.3754 104.889 13.3754C107.538 13.3754 109.657 14.3001 111.246 16.1496C112.868 17.999 113.679 20.4594 113.679 23.5308V41.117H106.23V24.2739C106.23 22.8538 105.849 21.764 105.088 21.0044C104.36 20.2117 103.333 19.8154 102.009 19.8154C100.685 19.8154 99.6419 20.2117 98.8804 21.0044C98.152 21.764 97.7878 22.8538 97.7878 24.2739V41.117H90.3387Z" fill="#ECEFF3"/>
<path d="M120.314 41.117V34.3798H129.75V20.5585H121.556V13.8708H136.703V34.3798H144.648V41.117H120.314ZM132.73 9.56096C131.372 9.56096 130.28 9.21419 129.452 8.52065C128.658 7.82711 128.26 6.88588 128.26 5.69695C128.26 4.50803 128.658 3.5668 129.452 2.87326C130.28 2.17972 131.372 1.83295 132.73 1.83295C134.087 1.83295 135.163 2.17972 135.958 2.87326C136.785 3.5668 137.199 4.50803 137.199 5.69695C137.199 6.88588 136.785 7.82711 135.958 8.52065C135.163 9.21419 134.087 9.56096 132.73 9.56096Z" fill="#ECEFF3"/>
<path d="M161.563 41.6124C159.146 41.6124 157.028 41.1665 155.207 40.2749C153.419 39.3501 152.028 38.0786 151.035 36.4604C150.075 34.8091 149.595 32.8936 149.595 30.7139V24.2739C149.595 22.0942 150.075 20.1952 151.035 18.577C152.028 16.9257 153.419 15.6542 155.207 14.7625C157.028 13.8378 159.146 13.3754 161.563 13.3754C163.98 13.3754 166.066 13.8378 167.821 14.7625C169.608 15.6542 170.982 16.9257 171.942 18.577C172.936 20.1952 173.432 22.0942 173.432 24.2739V29.2278H156.697V30.7139C156.697 32.4312 157.11 33.7358 157.938 34.6275C158.766 35.4861 160.007 35.9155 161.663 35.9155C162.821 35.9155 163.748 35.7173 164.444 35.321C165.172 34.9247 165.652 34.3798 165.884 33.6862H173.184C172.588 36.0641 171.231 37.9796 169.112 39.4327C167.026 40.8858 164.51 41.6124 161.563 41.6124ZM166.331 25.4133V24.1748C166.331 22.4905 165.933 21.2025 165.139 20.3108C164.377 19.4191 163.186 18.9733 161.563 18.9733C159.941 18.9733 158.716 19.4356 157.888 20.3604C157.094 21.2851 156.697 22.5896 156.697 24.2739V25.017L166.827 24.9179L166.331 25.4133Z" fill="#ECEFF3"/>
<path d="M196.009 41.117C194.088 41.117 192.4 40.7207 190.943 39.9281C189.486 39.1024 188.344 37.963 187.517 36.5099C186.722 35.0568 186.325 33.3725 186.325 31.457V11.6416H177.634V4.95388H193.774V31.457C193.774 32.3487 194.039 33.0753 194.568 33.6367C195.131 34.1651 195.86 34.4293 196.754 34.4293H204.451V41.117H196.009Z" fill="#ECEFF3"/>
<path d="M221.068 41.6124C219.545 41.6124 218.32 41.1665 217.393 40.2749C216.499 39.3501 216.052 38.1282 216.052 36.609C216.052 35.0568 216.499 33.8348 217.393 32.9431C218.32 32.0515 219.545 31.6056 221.068 31.6056C222.624 31.6056 223.849 32.0515 224.743 32.9431C225.637 33.8348 226.084 35.0568 226.084 36.609C226.084 38.1282 225.637 39.3501 224.743 40.2749C223.849 41.1665 222.624 41.6124 221.068 41.6124Z" fill="#ECEFF3"/>
<path d="M23.2551 37.6992L2 26.8997V22.6393L23.2551 11.8398V15.7039L8.10835 23.2338C7.4462 23.5641 6.8006 23.8613 6.17156 24.1255C5.57562 24.3897 5.12867 24.5714 4.8307 24.6704C5.16178 24.8025 5.64184 25.0007 6.27088 25.2649C6.89993 25.5291 7.51242 25.8098 8.10835 26.1071L23.2551 33.7361V37.6992Z" fill="#61AFEF"/>
</svg>
