<svg width="161" height="48" viewBox="0 0 161 48" fill="none" xmlns="http://www.w3.org/2000/svg">
<path d="M110.907 47.3199L128.157 0.319946H135.907L132.657 9.11995L160.657 21.7699V28.9199L137.657 39.3699V32.5699L151.457 26.4699C152.157 26.1699 152.941 25.9366 153.807 25.7699C154.707 25.5699 155.424 25.4533 155.957 25.4199C155.424 25.3533 154.707 25.2366 153.807 25.0699C152.941 24.8699 152.157 24.6199 151.457 24.3199L130.507 14.9199L118.657 47.3199H110.907Z" fill="#61AFEF"/>
<path d="M78.9075 41.8199V5.31995H90.6575C93.2575 5.31995 95.5075 5.76995 97.4075 6.66995C99.3075 7.56995 100.774 8.85328 101.807 10.5199C102.874 12.1866 103.407 14.1533 103.407 16.4199C103.407 18.7866 102.824 20.9033 101.657 22.7699C100.524 24.6366 98.9741 25.9866 97.0075 26.8199L103.907 41.8199H95.7575L89.8575 28.0199H86.3575V41.8199H78.9075ZM86.3575 21.5199H90.6575C92.3241 21.5199 93.6075 21.1033 94.5075 20.2699C95.4408 19.4366 95.9075 18.2699 95.9075 16.7699C95.9075 15.2033 95.4408 13.9866 94.5075 13.1199C93.6075 12.2533 92.3241 11.8199 90.6575 11.8199H86.3575V21.5199Z" fill="#61AFEF"/>
<path d="M66.8575 42.32C65.3242 42.32 64.0908 41.87 63.1575 40.97C62.2575 40.0366 61.8075 38.8033 61.8075 37.27C61.8075 35.7033 62.2575 34.47 63.1575 33.57C64.0908 32.67 65.3242 32.22 66.8575 32.22C68.4242 32.22 69.6575 32.67 70.5575 33.57C71.4575 34.47 71.9075 35.7033 71.9075 37.27C71.9075 38.8033 71.4575 40.0366 70.5575 40.97C69.6575 41.87 68.4242 42.32 66.8575 42.32Z" fill="#ECEFF3"/>
<path d="M30.3575 41.8199V5.31995H42.2075C44.7409 5.31995 46.9409 5.80328 48.8075 6.76995C50.7075 7.73661 52.1742 9.10328 53.2075 10.8699C54.2742 12.6033 54.8075 14.6533 54.8075 17.0199V30.0699C54.8075 32.4033 54.2742 34.4533 53.2075 36.2199C52.1742 37.9866 50.7075 39.3699 48.8075 40.3699C46.9409 41.3366 44.7409 41.8199 42.2075 41.8199H30.3575ZM37.8575 34.8199H42.2075C43.7409 34.8199 44.9742 34.3866 45.9075 33.5199C46.8409 32.6533 47.3075 31.5033 47.3075 30.0699V17.0199C47.3075 15.6199 46.8409 14.4866 45.9075 13.6199C44.9742 12.7533 43.7409 12.3199 42.2075 12.3199H37.8575V34.8199Z" fill="#ECEFF3"/>
<path d="M23.7271 39.37L0.727051 28.97V21.82L23.7271 11.37V18.17L9.92705 24.22C9.26039 24.52 8.56038 24.77 7.82705 24.97C7.09372 25.17 6.51038 25.3033 6.07705 25.37C6.51038 25.4367 7.09372 25.57 7.82705 25.77C8.56038 25.9367 9.26039 26.17 9.92705 26.47L23.7271 32.52V39.37Z" fill="#61AFEF"/>
</svg>
