<svg width="444" height="80" viewBox="0 0 444 80" fill="none" xmlns="http://www.w3.org/2000/svg">
<path d="M392.181 47L409.431 0H417.181L413.931 8.8L441.931 21.45V28.6L418.931 39.05V32.25L432.731 26.15C433.431 25.85 434.214 25.6167 435.081 25.45C435.981 25.25 436.697 25.1333 437.231 25.1C436.697 25.0333 435.981 24.9167 435.081 24.75C434.214 24.55 433.431 24.3 432.731 24L411.781 14.6L399.931 47H392.181Z" fill="#61AFEF"/>
<path d="M371.57 42C369.303 42 367.32 41.65 365.62 40.95C363.92 40.2167 362.586 39.2167 361.62 37.95C360.686 36.6833 360.22 35.2 360.22 33.5H367.72C367.72 34.3 368.07 34.95 368.77 35.45C369.503 35.9167 370.436 36.15 371.57 36.15H373.77C375.136 36.15 376.17 35.9 376.87 35.4C377.603 34.9 377.97 34.2 377.97 33.3C377.97 32.4667 377.653 31.8333 377.02 31.4C376.386 30.9333 375.403 30.6167 374.07 30.45L370.87 30.05C367.436 29.6167 364.936 28.7833 363.37 27.55C361.803 26.3167 361.02 24.4333 361.02 21.9C361.02 19.2333 361.936 17.1667 363.77 15.7C365.603 14.2333 368.286 13.5 371.82 13.5H373.72C377.086 13.5 379.77 14.2333 381.77 15.7C383.77 17.1667 384.77 19.1333 384.77 21.6H377.27C377.27 20.9333 376.936 20.4 376.27 20C375.636 19.5667 374.786 19.35 373.72 19.35H371.82C370.586 19.35 369.686 19.5667 369.12 20C368.553 20.4 368.27 21.0167 368.27 21.85C368.27 22.6167 368.52 23.2 369.02 23.6C369.553 24 370.386 24.2833 371.52 24.45L374.97 24.9C378.436 25.3333 381.003 26.2 382.67 27.5C384.37 28.8 385.22 30.7333 385.22 33.3C385.22 36.1 384.253 38.25 382.32 39.75C380.386 41.25 377.536 42 373.77 42H371.57Z" fill="#61AFEF"/>
<path d="M339.189 42C336.423 42 334.223 41.25 332.589 39.75C330.989 38.25 330.189 36.2167 330.189 33.65C330.189 30.8833 331.139 28.7667 333.039 27.3C334.973 25.8 337.739 25.05 341.339 25.05H347.039V23C347.039 21.9333 346.656 21.0833 345.889 20.45C345.156 19.8167 344.156 19.5 342.889 19.5C341.723 19.5 340.756 19.7667 339.989 20.3C339.223 20.8333 338.756 21.5667 338.589 22.5H331.339C331.639 19.7333 332.839 17.55 334.939 15.95C337.073 14.3167 339.806 13.5 343.139 13.5C346.639 13.5 349.406 14.3667 351.439 16.1C353.506 17.8 354.539 20.1 354.539 23V41.5H347.289V37H346.089L347.339 35.25C347.339 37.3167 346.589 38.9667 345.089 40.2C343.623 41.4 341.656 42 339.189 42ZM341.989 36.5C343.456 36.5 344.656 36.1167 345.589 35.35C346.556 34.55 347.039 33.5167 347.039 32.25V29.3H341.489C340.356 29.3 339.439 29.6333 338.739 30.3C338.039 30.9333 337.689 31.7833 337.689 32.85C337.689 33.9833 338.073 34.8833 338.839 35.55C339.606 36.1833 340.656 36.5 341.989 36.5Z" fill="#61AFEF"/>
<path d="M301.759 50.5V43.5H309.759C311.125 43.5 312.175 43.1166 312.909 42.35C313.642 41.6166 314.009 40.5833 314.009 39.25V21H303.259V14H321.509V39.5C321.509 42.9 320.509 45.5833 318.509 47.55C316.509 49.5166 313.775 50.5 310.309 50.5H301.759ZM317.509 9.64998C316.142 9.64998 315.042 9.29998 314.209 8.59997C313.409 7.89998 313.009 6.94998 313.009 5.74998C313.009 4.54998 313.409 3.59998 314.209 2.89998C315.042 2.19998 316.142 1.84998 317.509 1.84998C318.875 1.84998 319.959 2.19998 320.759 2.89998C321.592 3.59998 322.009 4.54998 322.009 5.74998C322.009 6.94998 321.592 7.89998 320.759 8.59997C319.959 9.29998 318.875 9.64998 317.509 9.64998Z" fill="#61AFEF"/>
<path d="M282.778 42C280.345 42 278.228 41.55 276.428 40.65C274.628 39.7167 273.228 38.4333 272.228 36.8C271.262 35.1333 270.778 33.2 270.778 31V24.5C270.778 22.3 271.262 20.3833 272.228 18.75C273.228 17.0833 274.628 15.8 276.428 14.9C278.228 13.9667 280.345 13.5 282.778 13.5C285.245 13.5 287.362 13.9667 289.128 14.9C290.928 15.8 292.312 17.0833 293.278 18.75C294.278 20.3833 294.778 22.3 294.778 24.5V31C294.778 33.2 294.278 35.1333 293.278 36.8C292.312 38.4333 290.928 39.7167 289.128 40.65C287.362 41.55 285.245 42 282.778 42ZM282.778 35.5C284.245 35.5 285.362 35.1167 286.128 34.35C286.895 33.55 287.278 32.4333 287.278 31V24.5C287.278 23.0333 286.895 21.9167 286.128 21.15C285.362 20.3833 284.245 20 282.778 20C281.345 20 280.228 20.3833 279.428 21.15C278.662 21.9167 278.278 23.0333 278.278 24.5V31C278.278 32.4333 278.662 33.55 279.428 34.35C280.228 35.1167 281.345 35.5 282.778 35.5Z" fill="#61AFEF"/>
<path d="M241.048 41.5V5H252.798C255.398 5 257.648 5.45 259.548 6.35C261.448 7.25 262.915 8.53333 263.948 10.2C265.015 11.8667 265.548 13.8333 265.548 16.1C265.548 18.4667 264.965 20.5833 263.798 22.45C262.665 24.3167 261.115 25.6667 259.148 26.5L266.048 41.5H257.898L251.998 27.7H248.498V41.5H241.048ZM248.498 21.2H252.798C254.465 21.2 255.748 20.7833 256.648 19.95C257.581 19.1167 258.048 17.95 258.048 16.45C258.048 14.8833 257.581 13.6667 256.648 12.8C255.748 11.9333 254.465 11.5 252.798 11.5H248.498V21.2Z" fill="#61AFEF"/>
<path d="M222.817 42C221.284 42 220.051 41.55 219.117 40.65C218.217 39.7167 217.767 38.4834 217.767 36.95C217.767 35.3834 218.217 34.15 219.117 33.25C220.051 32.35 221.284 31.9 222.817 31.9C224.384 31.9 225.617 32.35 226.517 33.25C227.417 34.15 227.867 35.3834 227.867 36.95C227.867 38.4834 227.417 39.7167 226.517 40.65C225.617 41.55 224.384 42 222.817 42Z" fill="#ECEFF3"/>
<path d="M197.337 41.5C195.404 41.5 193.704 41.1 192.237 40.3C190.77 39.4667 189.62 38.3167 188.787 36.85C187.987 35.3833 187.587 33.6833 187.587 31.75V11.75H179.087V5H195.087V31.75C195.087 32.65 195.354 33.3833 195.887 33.95C196.454 34.4833 197.187 34.75 198.087 34.75H206.087V41.5H197.337Z" fill="#ECEFF3"/>
<path d="M162.906 42C160.473 42 158.34 41.55 156.506 40.65C154.706 39.7167 153.306 38.4333 152.306 36.8C151.34 35.1333 150.856 33.2 150.856 31V24.5C150.856 22.3 151.34 20.3833 152.306 18.75C153.306 17.0833 154.706 15.8 156.506 14.9C158.34 13.9667 160.473 13.5 162.906 13.5C165.34 13.5 167.44 13.9667 169.206 14.9C171.006 15.8 172.39 17.0833 173.356 18.75C174.356 20.3833 174.856 22.3 174.856 24.5V29.5H158.006V31C158.006 32.7333 158.423 34.05 159.256 34.95C160.09 35.8167 161.34 36.25 163.006 36.25C164.173 36.25 165.106 36.05 165.806 35.65C166.54 35.25 167.023 34.7 167.256 34H174.606C174.006 36.4 172.64 38.3333 170.506 39.8C168.406 41.2667 165.873 42 162.906 42ZM167.706 25.65V24.4C167.706 22.7 167.306 21.4 166.506 20.5C165.74 19.6 164.54 19.15 162.906 19.15C161.273 19.15 160.04 19.6167 159.206 20.55C158.406 21.4833 158.006 22.8 158.006 24.5V25.25L168.206 25.15L167.706 25.65Z" fill="#ECEFF3"/>
<path d="M121.376 41.5V34.7H130.876V20.75H122.626V14H137.876V34.7H145.876V41.5H121.376ZM133.876 9.64998C132.509 9.64998 131.409 9.29998 130.576 8.59997C129.776 7.89998 129.376 6.94998 129.376 5.74998C129.376 4.54998 129.776 3.59998 130.576 2.89998C131.409 2.19998 132.509 1.84998 133.876 1.84998C135.243 1.84998 136.326 2.19998 137.126 2.89998C137.959 3.59998 138.376 4.54998 138.376 5.74998C138.376 6.94998 137.959 7.89998 137.126 8.59997C136.326 9.29998 135.243 9.64998 133.876 9.64998Z" fill="#ECEFF3"/>
<path d="M91.1956 41.5V14H98.4456V19.25H100.646L98.4456 21C98.4456 18.6667 99.1122 16.8333 100.446 15.5C101.779 14.1667 103.579 13.5 105.846 13.5C108.512 13.5 110.646 14.4333 112.246 16.3C113.879 18.1667 114.696 20.65 114.696 23.75V41.5H107.196V24.5C107.196 23.0667 106.812 21.9667 106.046 21.2C105.312 20.4 104.262 20 102.896 20C101.562 20 100.529 20.4 99.7956 21.2C99.0622 21.9667 98.6956 23.0667 98.6956 24.5V41.5H91.1956Z" fill="#ECEFF3"/>
<path d="M69.365 42C66.5983 42 64.3983 41.25 62.765 39.75C61.165 38.25 60.365 36.2167 60.365 33.65C60.365 30.8833 61.315 28.7667 63.215 27.3C65.1483 25.8 67.915 25.05 71.515 25.05H77.215V23C77.215 21.9333 76.8317 21.0833 76.065 20.45C75.3317 19.8167 74.3317 19.5 73.065 19.5C71.8983 19.5 70.9317 19.7667 70.165 20.3C69.3983 20.8333 68.9317 21.5667 68.765 22.5H61.515C61.815 19.7333 63.015 17.55 65.115 15.95C67.2483 14.3167 69.9817 13.5 73.315 13.5C76.815 13.5 79.5817 14.3667 81.615 16.1C83.6817 17.8 84.715 20.1 84.715 23V41.5H77.465V37H76.265L77.515 35.25C77.515 37.3167 76.765 38.9667 75.265 40.2C73.7983 41.4 71.8317 42 69.365 42ZM72.165 36.5C73.6317 36.5 74.8317 36.1167 75.765 35.35C76.7317 34.55 77.215 33.5167 77.215 32.25V29.3H71.665C70.5317 29.3 69.615 29.6333 68.915 30.3C68.215 30.9333 67.865 31.7833 67.865 32.85C67.865 33.9833 68.2483 34.8833 69.015 35.55C69.7817 36.1833 70.8317 36.5 72.165 36.5Z" fill="#ECEFF3"/>
<path d="M31.0846 41.5V5H42.9346C45.4679 5 47.6679 5.48333 49.5346 6.45C51.4346 7.41667 52.9013 8.78333 53.9346 10.55C55.0013 12.2833 55.5346 14.3333 55.5346 16.7V29.75C55.5346 32.0833 55.0013 34.1333 53.9346 35.9C52.9013 37.6667 51.4346 39.05 49.5346 40.05C47.6679 41.0167 45.4679 41.5 42.9346 41.5H31.0846ZM38.5846 34.5H42.9346C44.4679 34.5 45.7013 34.0667 46.6346 33.2C47.5679 32.3333 48.0346 31.1833 48.0346 29.75V16.7C48.0346 15.3 47.5679 14.1667 46.6346 13.3C45.7013 12.4333 44.4679 12 42.9346 12H38.5846V34.5Z" fill="#ECEFF3"/>
<path d="M24.4541 39.05L1.4541 28.6501V21.5L24.4541 11.05V17.85L10.6541 23.9C9.98744 24.2 9.28744 24.45 8.5541 24.65C7.82077 24.85 7.23744 24.9834 6.8041 25.05C7.23744 25.1167 7.82077 25.25 8.5541 25.4501C9.28744 25.6167 9.98744 25.85 10.6541 26.15L24.4541 32.2001V39.05Z" fill="#61AFEF"/>
<path d="M434.925 76.04V65.04H436.685V67.14H437.105L436.525 68.44C436.525 67.2533 436.778 66.36 437.285 65.76C437.805 65.1466 438.571 64.84 439.585 64.84C440.745 64.84 441.665 65.2066 442.345 65.94C443.038 66.66 443.385 67.64 443.385 68.88V69.54H441.585V69.04C441.585 68.1733 441.371 67.5133 440.945 67.06C440.531 66.5933 439.938 66.36 439.165 66.36C438.405 66.36 437.805 66.5933 437.365 67.06C436.938 67.5266 436.725 68.1866 436.725 69.04V76.04H434.925Z" fill="#ECEFF3"/>
<path d="M421.312 76.24C420.446 76.24 419.686 76.0666 419.032 75.72C418.392 75.3733 417.892 74.8866 417.532 74.26C417.186 73.62 417.012 72.88 417.012 72.04V69.04C417.012 68.1866 417.186 67.4466 417.532 66.82C417.892 66.1933 418.392 65.7066 419.032 65.36C419.686 65.0133 420.446 64.84 421.312 64.84C422.179 64.84 422.932 65.0133 423.572 65.36C424.226 65.7066 424.726 66.1933 425.072 66.82C425.432 67.4466 425.612 68.1866 425.612 69.04V70.98H418.772V72.04C418.772 72.9066 418.992 73.5733 419.432 74.04C419.872 74.4933 420.499 74.72 421.312 74.72C422.006 74.72 422.566 74.6 422.992 74.36C423.419 74.1066 423.679 73.7333 423.772 73.24H425.572C425.452 74.16 424.999 74.8933 424.212 75.44C423.439 75.9733 422.472 76.24 421.312 76.24ZM423.852 69.78V69.04C423.852 68.1733 423.632 67.5066 423.192 67.04C422.766 66.5733 422.139 66.34 421.312 66.34C420.499 66.34 419.872 66.5733 419.432 67.04C418.992 67.5066 418.772 68.1733 418.772 69.04V69.62H423.992L423.852 69.78Z" fill="#ECEFF3"/>
<path d="M399.76 76.04V65.04H401.56V67.14H401.94L401.56 67.56C401.56 66.6933 401.82 66.0266 402.34 65.56C402.86 65.08 403.58 64.84 404.5 64.84C405.607 64.84 406.487 65.18 407.14 65.86C407.794 66.54 408.12 67.4666 408.12 68.64V76.04H406.32V68.84C406.32 68.0533 406.107 67.4533 405.68 67.04C405.267 66.6133 404.7 66.4 403.98 66.4C403.234 66.4 402.64 66.6266 402.2 67.08C401.774 67.5333 401.56 68.1866 401.56 69.04V76.04H399.76Z" fill="#ECEFF3"/>
<path d="M383.748 79.64V78H387.248C387.808 78 388.215 77.8733 388.468 77.62C388.735 77.3666 388.868 76.9733 388.868 76.44V75.04L388.908 73.04H388.548L388.888 72.74C388.888 73.54 388.621 74.1733 388.088 74.64C387.555 75.1066 386.841 75.34 385.948 75.34C384.815 75.34 383.921 74.9733 383.268 74.24C382.615 73.4933 382.288 72.4933 382.288 71.24V68.92C382.288 67.6666 382.615 66.6733 383.268 65.94C383.921 65.2066 384.815 64.84 385.948 64.84C386.841 64.84 387.555 65.0733 388.088 65.54C388.621 66.0066 388.888 66.64 388.888 67.44L388.548 67.14H388.888V65.04H390.668V76.44C390.668 77.4266 390.361 78.2066 389.748 78.78C389.148 79.3533 388.308 79.64 387.228 79.64H383.748ZM386.488 73.78C387.235 73.78 387.821 73.5466 388.248 73.08C388.675 72.6133 388.888 71.9666 388.888 71.14V69.04C388.888 68.2133 388.675 67.5666 388.248 67.1C387.821 66.6333 387.235 66.4 386.488 66.4C385.728 66.4 385.135 66.6266 384.708 67.08C384.295 67.5333 384.088 68.1866 384.088 69.04V71.14C384.088 71.9933 384.295 72.6466 384.708 73.1C385.135 73.5533 385.728 73.78 386.488 73.78Z" fill="#ECEFF3"/>
<path d="M364.836 76.04V74.4H368.736V66.68H365.336V65.04H370.536V74.4H374.236V76.04H364.836ZM369.436 63.06C368.996 63.06 368.649 62.9467 368.396 62.72C368.143 62.4933 368.016 62.1867 368.016 61.8C368.016 61.4 368.143 61.0867 368.396 60.86C368.649 60.62 368.996 60.5 369.436 60.5C369.876 60.5 370.223 60.62 370.476 60.86C370.729 61.0867 370.856 61.4 370.856 61.8C370.856 62.1867 370.729 62.4933 370.476 62.72C370.223 62.9467 369.876 63.06 369.436 63.06Z" fill="#ECEFF3"/>
<path d="M351.404 76.2C350.657 76.2 350.004 76.0867 349.444 75.86C348.897 75.62 348.457 75.2867 348.124 74.86C347.804 74.4333 347.61 73.9267 347.544 73.34H349.344C349.424 73.7267 349.637 74.0333 349.984 74.26C350.344 74.4867 350.817 74.6 351.404 74.6H352.244C352.95 74.6 353.477 74.46 353.824 74.18C354.17 73.8867 354.344 73.5 354.344 73.02C354.344 72.5533 354.184 72.1867 353.864 71.92C353.557 71.64 353.097 71.4533 352.484 71.36L351.004 71.12C349.924 70.9333 349.117 70.6 348.584 70.12C348.064 69.6267 347.804 68.9133 347.804 67.98C347.804 66.9933 348.117 66.2333 348.744 65.7C349.37 65.1533 350.31 64.88 351.564 64.88H352.324C353.377 64.88 354.224 65.1267 354.864 65.62C355.504 66.1133 355.89 66.78 356.024 67.62H354.224C354.144 67.2733 353.944 67 353.624 66.8C353.304 66.5867 352.87 66.48 352.324 66.48H351.564C350.884 66.48 350.384 66.6067 350.064 66.86C349.757 67.1133 349.604 67.4933 349.604 68C349.604 68.4533 349.737 68.7867 350.004 69C350.27 69.2133 350.69 69.3667 351.264 69.46L352.744 69.7C353.93 69.8867 354.79 70.2333 355.324 70.74C355.87 71.2467 356.144 71.98 356.144 72.94C356.144 73.9533 355.817 74.7533 355.164 75.34C354.524 75.9133 353.55 76.2 352.244 76.2H351.404Z" fill="#ECEFF3"/>
<path d="M334.352 76.24C333.485 76.24 332.725 76.0666 332.072 75.72C331.432 75.3733 330.932 74.8866 330.572 74.26C330.225 73.62 330.052 72.88 330.052 72.04V69.04C330.052 68.1866 330.225 67.4466 330.572 66.82C330.932 66.1933 331.432 65.7066 332.072 65.36C332.725 65.0133 333.485 64.84 334.352 64.84C335.218 64.84 335.972 65.0133 336.612 65.36C337.265 65.7066 337.765 66.1933 338.112 66.82C338.472 67.4466 338.651 68.1866 338.651 69.04V70.98H331.811V72.04C331.811 72.9066 332.031 73.5733 332.471 74.04C332.911 74.4933 333.538 74.72 334.352 74.72C335.045 74.72 335.605 74.6 336.031 74.36C336.458 74.1066 336.718 73.7333 336.811 73.24H338.612C338.492 74.16 338.038 74.8933 337.251 75.44C336.478 75.9733 335.512 76.24 334.352 76.24ZM336.892 69.78V69.04C336.892 68.1733 336.672 67.5066 336.232 67.04C335.805 66.5733 335.178 66.34 334.352 66.34C333.538 66.34 332.911 66.5733 332.471 67.04C332.031 67.5066 331.811 68.1733 331.811 69.04V69.62H337.031L336.892 69.78Z" fill="#ECEFF3"/>
<path d="M316.319 76.2399C315.226 76.2399 314.339 75.8733 313.659 75.1399C312.993 74.4066 312.659 73.4133 312.659 72.1599V68.9399C312.659 67.6733 312.993 66.6733 313.659 65.9399C314.326 65.2066 315.213 64.8399 316.319 64.8399C317.226 64.8399 317.953 65.0866 318.499 65.5799C319.046 66.0733 319.319 66.7333 319.319 67.5599L318.959 67.1399H319.359L319.319 64.6399V61.4399H321.119V76.0399H319.319V73.9399H318.959L319.319 73.5199C319.319 74.3599 319.046 75.0266 318.499 75.5199C317.953 75.9999 317.226 76.2399 316.319 76.2399ZM316.919 74.6799C317.666 74.6799 318.253 74.4466 318.679 73.9799C319.106 73.5133 319.319 72.8666 319.319 72.0399V69.0399C319.319 68.2133 319.106 67.5666 318.679 67.0999C318.253 66.6333 317.666 66.3999 316.919 66.3999C316.159 66.3999 315.559 66.6266 315.119 67.0799C314.679 67.5333 314.459 68.1866 314.459 69.0399V72.0399C314.459 72.8933 314.679 73.5466 315.119 73.9999C315.559 74.4533 316.159 74.6799 316.919 74.6799Z" fill="#ECEFF3"/>
<path d="M281.215 76.24C280.055 76.24 279.142 75.9466 278.475 75.36C277.808 74.76 277.475 73.9533 277.475 72.94C277.475 71.9133 277.808 71.1066 278.475 70.52C279.142 69.9333 280.042 69.64 281.175 69.64H284.575V68.54C284.575 67.86 284.368 67.34 283.955 66.98C283.555 66.6066 282.982 66.42 282.235 66.42C281.582 66.42 281.035 66.56 280.595 66.84C280.155 67.1066 279.902 67.4733 279.835 67.94H278.035C278.155 66.9933 278.602 66.24 279.375 65.68C280.148 65.12 281.115 64.84 282.275 64.84C283.542 64.84 284.542 65.1666 285.275 65.82C286.008 66.4733 286.375 67.36 286.375 68.48V76.04H284.615V73.94H284.315L284.615 73.64C284.615 74.44 284.302 75.0733 283.675 75.54C283.062 76.0066 282.242 76.24 281.215 76.24ZM281.655 74.82C282.508 74.82 283.208 74.6066 283.755 74.18C284.302 73.7533 284.575 73.2066 284.575 72.54V70.98H281.215C280.615 70.98 280.142 71.1466 279.795 71.48C279.448 71.8133 279.275 72.2666 279.275 72.84C279.275 73.4533 279.482 73.94 279.895 74.3C280.322 74.6466 280.908 74.82 281.655 74.82Z" fill="#ECEFF3"/>
<path d="M260.483 76.04V74.4H264.383V66.68H260.983V65.04H266.183V74.4H269.883V76.04H260.483ZM265.083 63.06C264.643 63.06 264.296 62.9467 264.043 62.72C263.789 62.4933 263.663 62.1867 263.663 61.8C263.663 61.4 263.789 61.0867 264.043 60.86C264.296 60.62 264.643 60.5 265.083 60.5C265.523 60.5 265.869 60.62 266.123 60.86C266.376 61.0867 266.503 61.4 266.503 61.8C266.503 62.1867 266.376 62.4933 266.123 62.72C265.869 62.9467 265.523 63.06 265.083 63.06Z" fill="#ECEFF3"/>
<path d="M246.751 76.2399C245.657 76.2399 244.771 75.8733 244.091 75.1399C243.424 74.4066 243.091 73.4133 243.091 72.1599V68.9399C243.091 67.6733 243.424 66.6733 244.091 65.9399C244.757 65.2066 245.644 64.8399 246.751 64.8399C247.657 64.8399 248.384 65.0866 248.931 65.5799C249.477 66.0733 249.751 66.7333 249.751 67.5599L249.391 67.1399H249.791L249.751 64.6399V61.4399H251.551V76.0399H249.751V73.9399H249.391L249.751 73.5199C249.751 74.3599 249.477 75.0266 248.931 75.5199C248.384 75.9999 247.657 76.2399 246.751 76.2399ZM247.351 74.6799C248.097 74.6799 248.684 74.4466 249.111 73.9799C249.537 73.5133 249.751 72.8666 249.751 72.0399V69.0399C249.751 68.2133 249.537 67.5666 249.111 67.0999C248.684 66.6333 248.097 66.3999 247.351 66.3999C246.591 66.3999 245.991 66.6266 245.551 67.0799C245.111 67.5333 244.891 68.1866 244.891 69.0399V72.0399C244.891 72.8933 245.111 73.5466 245.551 73.9999C245.991 74.4533 246.591 74.6799 247.351 74.6799Z" fill="#ECEFF3"/>
<path d="M229.998 76.24C229.132 76.24 228.372 76.0666 227.718 75.72C227.078 75.3733 226.578 74.8866 226.218 74.26C225.872 73.62 225.698 72.88 225.698 72.04V69.04C225.698 68.1866 225.872 67.4466 226.218 66.82C226.578 66.1933 227.078 65.7066 227.718 65.36C228.372 65.0133 229.132 64.84 229.998 64.84C230.865 64.84 231.618 65.0133 232.258 65.36C232.912 65.7066 233.412 66.1933 233.758 66.82C234.118 67.4466 234.298 68.1866 234.298 69.04V70.98H227.458V72.04C227.458 72.9066 227.678 73.5733 228.118 74.04C228.558 74.4933 229.185 74.72 229.998 74.72C230.692 74.72 231.252 74.6 231.678 74.36C232.105 74.1066 232.365 73.7333 232.458 73.24H234.258C234.138 74.16 233.685 74.8933 232.898 75.44C232.125 75.9733 231.158 76.24 229.998 76.24ZM232.538 69.78V69.04C232.538 68.1733 232.318 67.5066 231.878 67.04C231.452 66.5733 230.825 66.34 229.998 66.34C229.185 66.34 228.558 66.5733 228.118 67.04C227.678 67.5066 227.458 68.1733 227.458 69.04V69.62H232.678L232.538 69.78Z" fill="#ECEFF3"/>
<path d="M207.926 76.04V65.04H209.506V66.36H209.866L209.586 66.84C209.586 66.2266 209.746 65.74 210.066 65.38C210.4 65.02 210.846 64.84 211.406 64.84C212.02 64.84 212.493 65.0666 212.826 65.52C213.16 65.9733 213.326 66.6133 213.326 67.44L212.786 66.36H213.626L213.246 66.84C213.246 66.2266 213.413 65.74 213.746 65.38C214.093 65.02 214.546 64.84 215.106 64.84C215.8 64.84 216.333 65.1 216.706 65.62C217.093 66.14 217.286 66.8266 217.286 67.68V76.04H215.626V67.66C215.626 67.2066 215.526 66.8533 215.326 66.6C215.14 66.3466 214.86 66.22 214.486 66.22C214.126 66.22 213.84 66.3466 213.626 66.6C213.426 66.84 213.326 67.1866 213.326 67.64V76.04H211.886V67.66C211.886 67.1933 211.78 66.84 211.566 66.6C211.366 66.3466 211.08 66.22 210.706 66.22C210.333 66.22 210.053 66.3466 209.866 66.6C209.68 66.84 209.586 67.1866 209.586 67.64V76.04H207.926Z" fill="#ECEFF3"/>
<path d="M177.822 76.24C176.955 76.24 176.195 76.0666 175.542 75.72C174.902 75.3733 174.402 74.8866 174.042 74.26C173.695 73.62 173.522 72.88 173.522 72.04V69.04C173.522 68.1866 173.695 67.4466 174.042 66.82C174.402 66.1933 174.902 65.7066 175.542 65.36C176.195 65.0133 176.955 64.84 177.822 64.84C178.689 64.84 179.442 65.0133 180.082 65.36C180.735 65.7066 181.235 66.1933 181.582 66.82C181.942 67.4466 182.122 68.1866 182.122 69.04V70.98H175.282V72.04C175.282 72.9066 175.502 73.5733 175.942 74.04C176.382 74.4933 177.009 74.72 177.822 74.72C178.515 74.72 179.075 74.6 179.502 74.36C179.929 74.1066 180.189 73.7333 180.282 73.24H182.082C181.962 74.16 181.509 74.8933 180.722 75.44C179.949 75.9733 178.982 76.24 177.822 76.24ZM180.362 69.78V69.04C180.362 68.1733 180.142 67.5066 179.702 67.04C179.275 66.5733 178.649 66.34 177.822 66.34C177.009 66.34 176.382 66.5733 175.942 67.04C175.502 67.5066 175.282 68.1733 175.282 69.04V69.62H180.502L180.362 69.78Z" fill="#ECEFF3"/>
<path d="M159.21 76.04L155.53 65.04H157.37L159.81 72.44C159.956 72.88 160.09 73.3067 160.21 73.72C160.33 74.12 160.416 74.4334 160.47 74.66C160.536 74.4334 160.63 74.12 160.75 73.72C160.87 73.3067 160.996 72.88 161.13 72.44L163.51 65.04H165.33L161.65 76.04H159.21Z" fill="#ECEFF3"/>
<path d="M138.738 76.04V74.4H142.638V66.68H139.238V65.04H144.438V74.4H148.138V76.04H138.738ZM143.338 63.06C142.898 63.06 142.551 62.9467 142.298 62.72C142.044 62.4933 141.918 62.1867 141.918 61.8C141.918 61.4 142.044 61.0867 142.298 60.86C142.551 60.62 142.898 60.5 143.338 60.5C143.778 60.5 144.124 60.62 144.378 60.86C144.631 61.0867 144.758 61.4 144.758 61.8C144.758 62.1867 144.631 62.4933 144.378 62.72C144.124 62.9467 143.778 63.06 143.338 63.06Z" fill="#ECEFF3"/>
<path d="M126.845 76.0399C125.899 76.0399 125.159 75.7866 124.625 75.2799C124.105 74.7733 123.845 74.0599 123.845 73.1399V66.6799H120.745V65.0399H123.845V61.9399H125.645V65.0399H130.045V66.6799H125.645V73.1399C125.645 73.9799 126.045 74.3999 126.845 74.3999H129.845V76.0399H126.845Z" fill="#ECEFF3"/>
<path d="M108.333 76.24C107.453 76.24 106.68 76.0733 106.013 75.74C105.36 75.4066 104.853 74.9266 104.493 74.3C104.133 73.66 103.953 72.9066 103.953 72.04V69.04C103.953 68.16 104.133 67.4066 104.493 66.78C104.853 66.1533 105.36 65.6733 106.013 65.34C106.68 65.0066 107.453 64.84 108.333 64.84C109.6 64.84 110.62 65.18 111.393 65.86C112.166 66.54 112.573 67.4666 112.613 68.64H110.813C110.773 67.9333 110.533 67.3933 110.093 67.02C109.666 66.6333 109.08 66.44 108.333 66.44C107.546 66.44 106.92 66.6666 106.453 67.12C105.986 67.56 105.753 68.1933 105.753 69.02V72.04C105.753 72.8666 105.986 73.5066 106.453 73.96C106.92 74.4133 107.546 74.64 108.333 74.64C109.08 74.64 109.666 74.4466 110.093 74.06C110.533 73.6733 110.773 73.1333 110.813 72.44H112.613C112.573 73.6133 112.166 74.54 111.393 75.22C110.62 75.9 109.6 76.24 108.333 76.24Z" fill="#ECEFF3"/>
<path d="M89.9009 76.24C88.7409 76.24 87.8276 75.9466 87.1609 75.36C86.4942 74.76 86.1609 73.9533 86.1609 72.94C86.1609 71.9133 86.4942 71.1066 87.1609 70.52C87.8276 69.9333 88.7276 69.64 89.8609 69.64H93.2609V68.54C93.2609 67.86 93.0542 67.34 92.6409 66.98C92.2409 66.6066 91.6676 66.42 90.9209 66.42C90.2675 66.42 89.7209 66.56 89.2809 66.84C88.8409 67.1066 88.5876 67.4733 88.5209 67.94H86.7209C86.8409 66.9933 87.2875 66.24 88.0609 65.68C88.8342 65.12 89.8009 64.84 90.9609 64.84C92.2276 64.84 93.2276 65.1666 93.9609 65.82C94.6942 66.4733 95.0609 67.36 95.0609 68.48V76.04H93.3009V73.94H93.0009L93.3009 73.64C93.3009 74.44 92.9876 75.0733 92.3609 75.54C91.7476 76.0066 90.9276 76.24 89.9009 76.24ZM90.3409 74.82C91.1942 74.82 91.8942 74.6066 92.4409 74.18C92.9876 73.7533 93.2609 73.2066 93.2609 72.54V70.98H89.9009C89.3009 70.98 88.8276 71.1466 88.4809 71.48C88.1342 71.8133 87.9609 72.2666 87.9609 72.84C87.9609 73.4533 88.1676 73.94 88.5809 74.3C89.0076 74.6466 89.5942 74.82 90.3409 74.82Z" fill="#ECEFF3"/>
<path d="M69.6887 76.04V65.04H71.4487V67.14H71.8687L71.2887 68.44C71.2887 67.2533 71.5421 66.36 72.0487 65.76C72.5687 65.1466 73.3354 64.84 74.3487 64.84C75.5087 64.84 76.4287 65.2066 77.1087 65.94C77.8021 66.66 78.1487 67.64 78.1487 68.88V69.54H76.3487V69.04C76.3487 68.1733 76.1354 67.5133 75.7087 67.06C75.2954 66.5933 74.7021 66.36 73.9287 66.36C73.1687 66.36 72.5687 66.5933 72.1287 67.06C71.7021 67.5266 71.4887 68.1866 71.4887 69.04V76.04H69.6887Z" fill="#ECEFF3"/>
<path d="M56.0766 76.24C55.2099 76.24 54.4499 76.0666 53.7966 75.72C53.1566 75.3733 52.6566 74.8866 52.2966 74.26C51.9499 73.62 51.7766 72.88 51.7766 72.04V69.04C51.7766 68.1866 51.9499 67.4466 52.2966 66.82C52.6566 66.1933 53.1566 65.7066 53.7966 65.36C54.4499 65.0133 55.2099 64.84 56.0766 64.84C56.9433 64.84 57.6966 65.0133 58.3366 65.36C58.9899 65.7066 59.4899 66.1933 59.8366 66.82C60.1966 67.4466 60.3766 68.1866 60.3766 69.04V70.98H53.5366V72.04C53.5366 72.9066 53.7566 73.5733 54.1966 74.04C54.6366 74.4933 55.2633 74.72 56.0766 74.72C56.7699 74.72 57.3299 74.6 57.7566 74.36C58.1833 74.1066 58.4433 73.7333 58.5366 73.24H60.3366C60.2166 74.16 59.7633 74.8933 58.9766 75.44C58.2033 75.9733 57.2366 76.24 56.0766 76.24ZM58.6166 69.78V69.04C58.6166 68.1733 58.3966 67.5066 57.9566 67.04C57.5299 66.5733 56.9033 66.34 56.0766 66.34C55.2633 66.34 54.6366 66.5733 54.1966 67.04C53.7566 67.5066 53.5366 68.1733 53.5366 69.04V69.62H58.7566L58.6166 69.78Z" fill="#ECEFF3"/>
<path d="M39.8844 76.0399C38.9378 76.0399 38.1978 75.7866 37.6644 75.2799C37.1444 74.7733 36.8844 74.0599 36.8844 73.1399V66.6799H33.7844V65.0399H36.8844V61.9399H38.6844V65.0399H43.0844V66.6799H38.6844V73.1399C38.6844 73.9799 39.0844 74.3999 39.8844 74.3999H42.8844V76.0399H39.8844Z" fill="#ECEFF3"/>
<path d="M17.1322 76.04V65.04H18.9322V67.14H19.3122L18.9322 67.56C18.9322 66.6933 19.1922 66.0266 19.7122 65.56C20.2322 65.08 20.9522 64.84 21.8722 64.84C22.9789 64.84 23.8589 65.18 24.5122 65.86C25.1655 66.54 25.4922 67.4666 25.4922 68.64V76.04H23.6922V68.84C23.6922 68.0533 23.4789 67.4533 23.0522 67.04C22.6389 66.6133 22.0722 66.4 21.3522 66.4C20.6055 66.4 20.0122 66.6266 19.5722 67.08C19.1455 67.5333 18.9322 68.1866 18.9322 69.04V76.04H17.1322Z" fill="#ECEFF3"/>
<path d="M0 76.0399V74.3999H2.98V63.0799H0V61.4399H7.8V63.0799H4.82V74.3999H7.8V76.0399H0Z" fill="#ECEFF3"/>
</svg>
