<svg width="512" height="512" viewBox="0 0 512 512" fill="none" xmlns="http://www.w3.org/2000/svg">
<g clip-path="url(#clip0_407_12)">
<path d="M354.499 450.32C352.476 450.32 350.452 449.544 348.91 448.001L295.371 394.467C293.89 392.986 293.057 390.971 293.057 388.877C293.057 386.784 293.89 384.769 295.371 383.288L445.276 233.383C446.761 231.902 448.771 231.069 450.865 231.069C452.963 231.069 454.973 231.902 456.454 233.383L509.993 286.922C513.079 290.008 513.079 295.011 509.993 298.101L360.088 448.001C358.545 449.544 356.522 450.32 354.499 450.32ZM312.139 388.877L354.499 431.238L493.225 292.511L450.865 250.147L312.139 388.877Z" fill="#282C34"/>
<path d="M274.195 477.089C272.132 477.089 270.109 476.278 268.602 474.775C266.486 472.655 265.75 469.525 266.693 466.686L293.462 386.378C294.331 383.777 296.482 381.816 299.144 381.186C301.815 380.555 304.614 381.353 306.549 383.288L360.088 436.827C362.023 438.762 362.821 441.565 362.191 444.232C361.56 446.899 359.594 449.046 356.998 449.914L276.69 476.683C275.87 476.957 275.028 477.089 274.195 477.089V477.089ZM304.416 403.507L286.687 456.689L339.865 438.96L304.416 403.507Z" fill="#282C34"/>
<path d="M474.959 329.86C472.936 329.86 470.912 329.088 469.37 327.545L415.831 274.007C412.745 270.921 412.745 265.914 415.831 262.828C418.916 259.743 423.924 259.743 427.009 262.828L480.548 316.367C483.634 319.453 483.634 324.456 480.548 327.545C479.001 329.088 476.978 329.86 474.959 329.86Z" fill="#282C34"/>
<path d="M309.776 387.969H53.0671C23.8072 387.969 0 364.162 0 334.902V88.0671C0 58.8072 23.8072 35 53.0671 35H346.635C375.899 35 399.702 58.8072 399.702 88.0671V298.039C399.702 302.403 396.167 305.942 391.799 305.942C387.435 305.942 383.895 302.403 383.895 298.039V88.0671C383.895 67.5217 367.181 50.8068 346.635 50.8068H53.0671C32.5217 50.8068 15.8068 67.5217 15.8068 88.0671V334.902C15.8068 355.448 32.5217 372.163 53.0671 372.163H309.776C314.14 372.163 317.679 375.698 317.679 380.066C317.679 384.43 314.14 387.969 309.776 387.969Z" fill="#282C34"/>
<path d="M391.799 142.655H7.90342C3.53957 142.655 0 139.115 0 134.751C0 130.388 3.53957 126.848 7.90342 126.848H391.799C396.167 126.848 399.702 130.388 399.702 134.751C399.702 139.115 396.167 142.655 391.799 142.655Z" fill="#282C34"/>
<path d="M113.337 111.288C101.158 111.288 91.2485 101.379 91.2485 89.1999C91.2485 77.0164 101.158 67.1074 113.337 67.1074C125.52 67.1074 135.429 77.0164 135.429 89.1999C135.429 101.379 125.52 111.288 113.337 111.288ZM113.337 82.9142C109.872 82.9142 107.055 85.7353 107.055 89.1999C107.055 92.6601 109.872 95.4812 113.337 95.4812C116.801 95.4812 119.622 92.6601 119.622 89.1999C119.622 85.7353 116.801 82.9142 113.337 82.9142Z" fill="#282C34"/>
<path d="M49.6068 111.09C37.4277 111.09 27.5187 101.181 27.5187 88.9971C27.5187 76.818 37.4277 66.909 49.6068 66.909C61.7903 66.909 71.6994 76.818 71.6994 88.9971C71.6994 101.181 61.7903 111.09 49.6068 111.09ZM49.6068 82.7158C46.1422 82.7158 43.3255 85.5325 43.3255 88.9971C43.3255 92.4618 46.1422 95.2828 49.6068 95.2828C53.0714 95.2828 55.8925 92.4618 55.8925 88.9971C55.8925 85.5325 53.0714 82.7158 49.6068 82.7158Z" fill="#282C34"/>
<path d="M177.067 111.486C164.887 111.486 154.978 101.577 154.978 89.3983C154.978 77.2148 164.887 67.3057 177.067 67.3057C189.25 67.3057 199.159 77.2148 199.159 89.3983C199.159 101.577 189.25 111.486 177.067 111.486ZM177.067 83.1126C173.602 83.1126 170.785 85.9336 170.785 89.3983C170.785 92.8629 173.602 95.6796 177.067 95.6796C180.531 95.6796 183.352 92.8629 183.352 89.3983C183.352 85.9292 180.531 83.1126 177.067 83.1126Z" fill="#282C34"/>
</g>
<defs>
<clipPath id="clip0_407_12">
<rect width="512" height="512" fill="white"/>
</clipPath>
</defs>
</svg>
