<svg width="100" height="75" viewBox="0 0 100 75" fill="none" xmlns="http://www.w3.org/2000/svg">
<path d="M62.5 0C51.2562 0 41.1938 4.975 34.325 12.8125C33.3 12.7063 32.3 12.5 31.25 12.5C13.9938 12.5 0 26.4938 0 43.75C0 61.0062 13.9938 75 31.25 75H62.5C83.2125 75 100 58.2125 100 37.5C100 16.7875 83.2125 0 62.5 0Z" fill="#F44336"/>
<path d="M62.5 6.25C54.5625 6.25 47.225 9.19375 41.5937 14.3313C43.5562 14.95 45.5375 15.85 47.5125 17.0687C47.6125 17.125 47.7125 17.1875 47.8125 17.25L47.8312 17.2625C52.0062 14.2125 57.0812 12.5 62.5 12.5C76.2875 12.5 87.5 23.7125 87.5 37.5C87.5 51.2875 76.2875 62.5 62.5 62.5C57.1 62.5 51.95 60.7938 47.6 57.55C45.8375 56.25 44.4 54.8812 43.2 53.3687C43.1322 53.281 43.0592 53.1976 42.9812 53.1187L33.6687 41.7687C32.5687 40.4312 30.6 40.2312 29.2687 41.3312C27.9312 42.425 27.7375 44.3938 28.8312 45.7313L38.325 57.3062C38.375 57.3687 38.4312 57.4312 38.4875 57.4875C40 59.35 41.7687 61.0125 43.8812 62.5687C49.3 66.6125 55.7375 68.75 62.5 68.75C79.7312 68.75 93.75 54.7312 93.75 37.5C93.75 20.2688 79.7312 6.25 62.5 6.25Z" fill="#FAFAFA"/>
<path d="M34.3688 62.2188C33.35 62.3875 32.3062 62.5 31.25 62.5C20.9125 62.5 12.5 54.0875 12.5 43.75C12.5 31.3438 24.4813 21.4813 37.5375 26.1375C38.65 26.45 39.8625 27.0188 41.1438 27.8313C41.2 27.8688 41.2625 27.9 41.325 27.9375L60.8437 40.1563C62.3125 41.0688 64.2375 40.625 65.15 39.1563C66.0625 37.6938 65.6187 35.7688 64.1625 34.85L44.5 22.5438C44.45 22.5125 44.3937 22.4813 44.3375 22.45C42.5937 21.3625 40.8812 20.5813 39.4375 20.1875C36.8131 19.2343 34.0421 18.7478 31.25 18.75C17.4625 18.75 6.25 29.9625 6.25 43.75C6.25 57.5375 17.4625 68.75 31.25 68.75C34.1937 68.75 37.05 68.2063 39.7375 67.2375C37.7125 65.7063 35.95 64.0375 34.3688 62.2188Z" fill="#FAFAFA"/>
</svg>
