<svg width="83" height="100" viewBox="0 0 83 100" fill="none" xmlns="http://www.w3.org/2000/svg">
<g clip-path="url(#clip0_395_18)">
<path d="M30.8811 12.6352H8.29325C6.09293 12.6416 3.98479 13.5196 2.43043 15.077C0.87607 16.6344 0.0021529 18.7442 3.1107e-05 20.9445C-0.0618057 23.0772 0.72492 25.1473 2.18758 26.7005C3.65024 28.2538 5.66935 29.1634 7.80186 29.2297H8.04756H31.1228L30.8811 12.6352Z" fill="#073042"/>
<path d="M82.3361 86.5452H8.26703C6.07473 86.5319 3.97632 85.6536 2.42818 84.1013C0.88004 82.549 0.00737752 80.4483 -1.4045e-05 78.256V20.8982C-0.00558158 21.9906 0.204112 23.0734 0.61709 24.0848C1.03007 25.0962 1.63824 26.0163 2.40687 26.7926C3.1755 27.5689 4.08953 28.1862 5.09675 28.6092C6.10398 29.0322 7.18467 29.2526 8.2771 29.2579C8.46238 29.2579 8.64564 29.2579 8.82891 29.2418H70.2648C70.2648 29.2418 82.3361 28.1945 82.3361 37.2973V86.5452Z" fill="#4285F4"/>
<path d="M43.2222 46.6519C42.245 46.6696 41.2989 46.9989 40.5219 47.5919C39.745 48.1849 39.1777 49.0105 38.9027 49.9484C38.6278 50.8864 38.6597 51.8876 38.9936 52.8062C39.3275 53.7248 39.9461 54.5127 40.7592 55.0552C41.5723 55.5976 42.5373 55.8662 43.5137 55.8217C44.4901 55.7773 45.4268 55.4222 46.1873 54.8081C46.9477 54.1941 47.4922 53.3533 47.7413 52.4081C47.9904 51.463 47.9312 50.463 47.5722 49.5539C47.2257 48.687 46.6244 47.9456 45.8478 47.4275C45.0712 46.9094 44.1557 46.639 43.2222 46.6519V46.6519Z" fill="black"/>
<path d="M47.7837 57.1685C49.022 56.241 49.9408 54.9511 50.4128 53.4777C50.8847 52.0044 50.8864 50.4207 50.4175 48.9463C49.9486 47.472 49.0325 46.1802 47.7962 45.2501C46.5599 44.32 45.0648 43.7978 43.5183 43.7559H43.76C44.1966 43.7136 44.6364 43.7136 45.073 43.7559V39.1401C45.084 38.879 45.0253 38.6198 44.9028 38.389C44.7803 38.1582 44.5986 37.9642 44.3762 37.827C44.1528 37.6946 43.8978 37.6248 43.6381 37.6248C43.3784 37.6248 43.1235 37.6946 42.9 37.827C42.6777 37.9642 42.4959 38.1582 42.3734 38.389C42.251 38.6198 42.1922 38.879 42.2032 39.1401V43.8365C40.7461 44.0674 39.3898 44.7239 38.3047 45.7233C37.2196 46.7228 36.4541 48.0207 36.1044 49.4539C35.7547 50.8871 35.8364 52.3917 36.3393 53.7786C36.8421 55.1656 37.7437 56.3729 38.9306 57.249L25.2744 86.4384H34.1819L40.4793 73.0239C40.7474 72.4688 41.1666 72.0006 41.6889 71.6732C42.2112 71.3458 42.8153 71.1724 43.4317 71.1731C44.0447 71.1715 44.6454 71.3448 45.1633 71.6726C45.6813 72.0004 46.095 72.4692 46.3559 73.0239L52.8467 86.4384H61.8669L47.7837 57.1685ZM43.2223 55.8534C42.3046 55.857 41.4066 55.5879 40.6421 55.0803C39.8776 54.5727 39.2811 53.8495 38.9283 53.0024C38.5754 52.1553 38.4822 51.2224 38.6603 50.3222C38.8385 49.422 39.28 48.595 39.9289 47.9462C40.5778 47.2973 41.4048 46.8558 42.305 46.6776C43.2051 46.4995 44.138 46.5927 44.9851 46.9455C45.8322 47.2984 46.5554 47.8949 47.063 48.6594C47.5706 49.4239 47.8397 50.3219 47.8361 51.2395C47.8361 52.4632 47.35 53.6368 46.4847 54.502C45.6195 55.3673 44.4459 55.8534 43.2223 55.8534V55.8534Z" fill="#3870B2"/>
<path d="M25.9994 16.7153H57.682V22.5355H25.9994V16.7153Z" fill="white"/>
<path d="M40.7552 46.6519C41.8147 46.6597 42.8389 47.0342 43.6535 47.7117C44.4682 48.3892 45.0231 49.3279 45.2239 50.3683C45.4248 51.4086 45.2591 52.4864 44.7552 53.4185C44.2512 54.3505 43.44 55.0793 42.4595 55.4809C41.479 55.8825 40.3897 55.9322 39.3767 55.6214C38.3637 55.3107 37.4896 54.6588 36.9029 53.7765C36.3162 52.8942 36.0532 51.8359 36.1585 50.7816C36.2638 49.7273 36.731 48.742 37.4806 47.9931C38.3547 47.1349 39.5302 46.6534 40.7552 46.6519ZM42.5677 43.9694V39.136C42.5787 38.875 42.52 38.6157 42.3975 38.3849C42.275 38.1542 42.0932 37.9602 41.8709 37.823C41.6475 37.6906 41.3925 37.6207 41.1328 37.6207C40.8731 37.6207 40.6182 37.6906 40.3947 37.823C40.1727 37.9605 39.9911 38.1545 39.8687 38.3852C39.7463 38.616 39.6873 38.8751 39.6979 39.136V43.8324C38.2408 44.0634 36.8845 44.7198 35.7994 45.7193C34.7143 46.7188 33.9488 48.0167 33.5991 49.4499C33.2494 50.8831 33.3311 52.3877 33.834 53.7746C34.3368 55.1615 35.2384 56.3689 36.4253 57.245L19.2931 94.1375C18.9737 94.7863 18.8325 95.5083 18.8842 96.2295C18.9359 96.9508 19.1785 97.6453 19.5871 98.2419C20.0024 98.8329 20.5652 99.3049 21.2196 99.6109C21.874 99.9169 22.597 100.046 23.3169 99.9859C24.0365 99.9164 24.7245 99.6556 25.3095 99.2307C25.8945 98.8058 26.3552 98.2321 26.6438 97.5692L38.0626 73.0239C38.3331 72.4707 38.753 72.0042 39.2747 71.6771C39.7964 71.3501 40.3992 71.1755 41.015 71.1731C41.628 71.1715 42.2287 71.3448 42.7466 71.6726C43.2646 72.0004 43.6783 72.4692 43.9392 73.0239L55.6621 97.4363C55.8945 97.9154 56.2191 98.344 56.6172 98.6976C57.0153 99.0513 57.4792 99.3231 57.9823 99.4975C58.4855 99.6719 59.018 99.7454 59.5496 99.714C60.0812 99.6826 60.6014 99.5467 61.0805 99.3143C61.5595 99.0818 61.9881 98.7572 62.3418 98.3591C62.6955 97.961 62.9672 97.4971 63.1416 96.994C63.316 96.4909 63.3896 95.9583 63.3581 95.4267C63.3267 94.8951 63.1909 94.375 62.9584 93.8959L45.3126 57.1684C46.3993 56.3013 47.2253 55.1508 47.6997 53.844C48.174 52.5371 48.2781 51.1247 48.0007 49.7624C47.7232 48.4001 47.0749 47.1409 46.1273 46.1236C45.1796 45.1064 43.9694 44.3707 42.6301 43.9976" fill="#073042"/>
<path d="M53.0943 21.8367C52.6644 21.8463 52.2416 21.7265 51.8805 21.493C51.5194 21.2594 51.2368 20.9228 51.0693 20.5268C50.9018 20.1307 50.8571 19.6935 50.9409 19.2718C51.0248 18.85 51.2333 18.4631 51.5396 18.1613C51.8436 17.8605 52.2295 17.656 52.6491 17.5736C53.0687 17.4911 53.5033 17.5343 53.8985 17.6977C54.2937 17.8611 54.6319 18.1375 54.8707 18.4922C55.1096 18.8469 55.2384 19.2642 55.2412 19.6919C55.2412 19.9737 55.1856 20.2528 55.0777 20.5131C54.9698 20.7735 54.8116 21.01 54.6122 21.2092C54.4129 21.4084 54.1762 21.5663 53.9157 21.674C53.6553 21.7817 53.3762 21.8369 53.0943 21.8367ZM29.2458 21.8367C28.8179 21.8413 28.3985 21.718 28.0412 21.4826C27.6839 21.2471 27.4052 20.9103 27.2407 20.5153C27.0762 20.1203 27.0335 19.6852 27.1181 19.2658C27.2026 18.8463 27.4106 18.4617 27.7152 18.1613C27.8963 17.9406 28.119 17.7577 28.3707 17.6231C28.6224 17.4885 28.8982 17.4048 29.1822 17.3767C29.4663 17.3487 29.7531 17.3768 30.0263 17.4596C30.2994 17.5424 30.5536 17.6782 30.7743 17.8592C30.995 18.0403 31.1779 18.263 31.3125 18.5147C31.4472 18.7664 31.5309 19.0422 31.5589 19.3262C31.587 19.6103 31.5588 19.8971 31.476 20.1703C31.3932 20.4434 31.2574 20.6976 31.0764 20.9183C30.986 21.0289 30.8849 21.1301 30.7743 21.2204C30.5737 21.4201 30.3351 21.5776 30.0725 21.6834C29.81 21.7893 29.5288 21.8414 29.2458 21.8367V21.8367ZM53.8737 8.82691L58.1653 1.37549C58.2466 1.17268 58.2524 0.947442 58.1816 0.740737C58.1108 0.534032 57.9682 0.359586 57.7797 0.24912C57.5912 0.138655 57.3693 0.0995055 57.1544 0.138792C56.9395 0.178077 56.7458 0.293189 56.6086 0.463196L52.2626 8.02135C48.7795 6.45706 45.0045 5.64829 41.1862 5.64829C37.3679 5.64829 33.5929 6.45706 30.1097 8.02135L25.7315 0.45514C25.6521 0.318333 25.5385 0.204477 25.4019 0.1247C25.2653 0.0449238 25.1103 0.00195713 24.9522 0C24.7945 0.00779192 24.6409 0.0531637 24.5043 0.132334C24.3676 0.211505 24.2519 0.322181 24.1667 0.45514C24.0867 0.593827 24.0445 0.751147 24.0445 0.911288C24.0445 1.07143 24.0867 1.22875 24.1667 1.36744L28.4865 8.81885C24.7654 10.8596 21.6116 13.7956 19.3103 17.3614C17.0089 20.9272 15.6325 25.0104 15.3056 29.2418H67.0829C66.7508 25.0093 65.3692 20.9264 63.0629 17.362C60.7567 13.7976 57.5984 10.8642 53.8737 8.82691" fill="#3DDC84"/>
<path d="M74.9049 45.1495H71.4934C71.3791 45.1495 71.2694 45.1949 71.1886 45.2758C71.1078 45.3566 71.0624 45.4662 71.0624 45.5805V45.5805V99.3676C71.0622 99.477 71.1038 99.5823 71.1786 99.6621C71.2535 99.7418 71.356 99.7899 71.4652 99.7966H74.9794C76.9522 99.7913 78.8423 99.0039 80.2353 97.607C81.6284 96.2102 82.4107 94.3179 82.4107 92.3452V37.6921C82.4107 39.6683 81.6256 41.5636 80.2282 42.961C78.8308 44.3584 76.9355 45.1435 74.9593 45.1435L74.9049 45.1495Z" fill="#073042"/>
</g>
<defs>
<clipPath id="clip0_395_18">
<rect width="82.4167" height="100" fill="white"/>
</clipPath>
</defs>
</svg>
