<svg width="100" height="100" viewBox="0 0 100 100" fill="none" xmlns="http://www.w3.org/2000/svg">
<g clip-path="url(#clip0_393_8)">
<path d="M50.1147 100C46.7506 99.9906 43.5267 98.6522 41.146 96.277L3.83096 58.9612C-1.11439 54.0158 -1.11439 45.9971 3.83096 41.0517L41.146 3.70881C46.0921 -1.23654 54.1101 -1.23654 59.0563 3.70881L96.3984 41.0239C101.344 45.97 101.344 53.9888 96.3984 58.9341L59.0833 96.277C56.7018 98.6522 53.4779 99.9906 50.1147 100ZM50.1147 4.33385C47.9028 4.33863 45.7824 5.21766 44.217 6.77985L6.902 44.0957C5.3398 45.6555 4.46236 47.7719 4.46236 49.979C4.46236 52.1869 5.3398 54.3033 6.902 55.8631L44.217 93.2052C45.7768 94.7674 47.894 95.6448 50.1011 95.6448C52.3083 95.6448 54.4254 94.7674 55.9852 93.2052L93.3273 55.8902C94.8887 54.3303 95.7662 52.214 95.7662 50.0069C95.7662 47.7989 94.8887 45.6826 93.3273 44.1228L56.0123 6.77985C54.4469 5.21766 52.3266 4.33863 50.1147 4.33385V4.33385Z" fill="#F05033"/>
<path d="M50.1146 36.9472C44.1103 36.9472 39.2438 32.0807 39.2438 26.0763C39.2438 20.0728 44.1103 15.2055 50.1146 15.2055C56.1181 15.2055 60.9855 20.0728 60.9855 26.0763C60.9855 32.0807 56.1181 36.9472 50.1146 36.9472V36.9472ZM50.1146 19.5537C46.5125 19.5537 43.592 22.4742 43.592 26.0763C43.592 29.6785 46.5125 32.599 50.1146 32.599C53.7167 32.599 56.6373 29.6785 56.6373 26.0763C56.6373 22.4742 53.7167 19.5537 50.1146 19.5537Z" fill="#F05033"/>
<path d="M50.1146 80.4322C44.1103 80.4322 39.2438 75.5648 39.2438 69.5605C39.2438 63.557 44.1103 58.6897 50.1146 58.6897C56.1181 58.6897 60.9855 63.557 60.9855 69.5605C60.9855 75.5648 56.1181 80.4322 50.1146 80.4322V80.4322ZM50.1146 63.0378C46.5125 63.0378 43.592 65.9584 43.592 69.5605C43.592 73.1634 46.5125 76.0832 50.1146 76.0832C53.7167 76.0832 56.6373 73.1634 56.6373 69.5605C56.6373 65.9584 53.7167 63.0378 50.1146 63.0378Z" fill="#F05033"/>
<path d="M71.8571 58.6897C65.8528 58.6897 60.9855 53.8224 60.9855 47.8188C60.9855 41.8145 65.8528 36.9472 71.8571 36.9472C77.8607 36.9472 82.728 41.8145 82.728 47.8188C82.728 53.8224 77.8607 58.6897 71.8571 58.6897V58.6897ZM71.8571 41.2962C68.2542 41.2962 65.3345 44.2159 65.3345 47.8188C65.3345 51.4209 68.2542 54.3415 71.8571 54.3415C75.4592 54.3415 78.3798 51.4209 78.3798 47.8188C78.3798 44.2159 75.4592 41.2962 71.8571 41.2962V41.2962Z" fill="#F05033"/>
<path d="M34.4569 13.4721L37.5319 10.3979L45.5149 18.3808L42.4398 21.4551L34.4569 13.4721Z" fill="#F05033"/>
<path d="M54.7129 33.7504L57.7879 30.6753L67.2319 40.1194L64.1569 43.1944L54.7129 33.7504Z" fill="#F05033"/>
<path d="M47.9402 34.7735H52.2892V60.8642H47.9402V34.7735Z" fill="#F05033"/>
</g>
<defs>
<clipPath id="clip0_393_8">
<rect width="100" height="100" fill="white"/>
</clipPath>
</defs>
</svg>
