<svg width="94" height="89" viewBox="0 0 94 89" fill="none" xmlns="http://www.w3.org/2000/svg">
<path fill-rule="evenodd" clip-rule="evenodd" d="M77.2748 29.2996C76.3001 28.9488 75.2901 28.6169 74.2502 28.303C74.4212 27.5737 74.578 26.8537 74.7175 26.146C77.007 14.5254 75.5101 5.1638 70.3983 2.08156C65.4968 -0.87391 57.4807 2.20764 49.3849 9.57453C48.6064 10.2829 47.8257 11.0329 47.0453 11.819C46.5254 11.2989 46.0063 10.7963 45.4885 10.3156C37.0038 2.43846 28.4992 -0.881079 23.3925 2.21009C18.4956 5.17412 17.0455 13.9749 19.1064 24.9879C19.3054 26.0516 19.5381 27.1379 19.8011 28.2424C18.5975 28.5996 17.4355 28.9805 16.3237 29.3857C6.37629 33.0119 0.0234375 38.6952 0.0234375 44.5902C0.0234375 50.6786 6.84323 56.7854 17.2042 60.4883C18.0218 60.7805 18.8703 61.0568 19.7446 61.3191C19.4608 62.5136 19.2139 63.6842 19.0067 64.8259C17.0416 75.6477 18.5762 84.2406 23.46 87.1859C28.5046 90.2276 36.9707 87.1011 45.2145 79.5663C45.8661 78.9707 46.52 78.3391 47.1751 77.677C48.0242 78.532 48.8719 79.3411 49.7152 80.1C57.7003 87.2849 65.5869 90.1862 70.4662 87.2326C75.5057 84.1822 77.1435 74.9514 75.0172 63.7206C74.8548 62.8628 74.6658 61.9865 74.4536 61.0947C75.0481 60.9109 75.6318 60.7212 76.2009 60.5239C86.9722 56.7924 93.9803 50.7599 93.9803 44.5902C93.9803 38.6738 87.4225 32.9523 77.2748 29.2996ZM74.9386 56.5405C74.4249 56.7183 73.8977 56.8902 73.3605 57.0569C72.1715 53.1207 70.5666 48.9352 68.6027 44.6109C70.4768 40.3895 72.0196 36.2575 73.1754 32.3469C74.1365 32.6378 75.0694 32.9445 75.9683 33.2682C84.6629 36.3978 89.9665 41.025 89.9665 44.5904C89.9665 48.3882 84.2388 53.3183 74.9386 56.5405ZM71.0797 64.5358C72.0199 69.502 72.1542 73.9919 71.5314 77.5019C70.9718 80.6558 69.8465 82.7586 68.455 83.6008C65.494 85.3929 59.1619 83.0634 52.3329 76.9189C51.55 76.2145 50.7615 75.4624 49.9704 74.6664C52.6179 71.6389 55.2638 68.1193 57.8462 64.2104C62.3883 63.789 66.6796 63.1 70.5711 62.1594C70.7628 62.9678 70.933 63.7607 71.0797 64.5358ZM32.0555 83.2911C29.1625 84.3594 26.8584 84.39 25.4656 83.5503C22.502 81.7629 21.2699 74.8636 22.9505 65.6088C23.143 64.549 23.3721 63.4602 23.6362 62.3474C27.4851 63.2373 31.7449 63.8776 36.2979 64.2636C38.8977 68.0885 41.62 71.6042 44.3635 74.6826C43.7641 75.2877 43.167 75.8637 42.5733 76.4065C38.9279 79.7383 35.2749 82.1022 32.0555 83.2911ZM18.5024 56.5172C13.9209 54.8799 10.1374 52.7519 7.544 50.4298C5.21366 48.3431 4.03711 46.2714 4.03711 44.5904C4.03711 41.0131 9.13782 36.4503 17.6449 33.3489C18.6771 32.9726 19.7577 32.618 20.879 32.2849C22.0547 36.2838 23.597 40.4647 25.4583 44.6925C23.573 48.9831 22.0088 53.2307 20.8215 57.2765C20.0221 57.0362 19.2476 56.7834 18.5024 56.5172ZM23.0455 24.1821C21.2797 14.7465 22.4524 7.62864 25.4034 5.84253C28.5467 3.93977 35.4975 6.65269 42.8233 13.4542C43.2916 13.889 43.7617 14.344 44.2332 14.8147C41.5033 17.8797 38.8059 21.369 36.2292 25.1714C31.8103 25.5996 27.5804 26.2875 23.6914 27.2088C23.4469 26.1804 23.2303 25.17 23.0455 24.1821ZM63.5742 34.6461C62.6445 32.967 61.6901 31.3276 60.7171 29.733C63.7149 30.1293 66.5871 30.6553 69.2844 31.299C68.4746 34.0126 67.4653 36.8498 66.2772 39.7584C65.4249 38.0666 64.5235 36.3607 63.5742 34.6461ZM47.0467 17.8141C48.8981 19.9113 50.7521 22.2528 52.5757 24.7933C50.7381 24.7025 48.8777 24.6553 47.0019 24.6553C45.1438 24.6553 43.2971 24.7015 41.4709 24.7907C43.2963 22.2738 45.1664 19.9354 47.0467 17.8141ZM30.4133 34.6752C29.4846 36.359 28.5999 38.0556 27.761 39.7553C26.5922 36.8568 25.5922 34.0066 24.7754 31.2545C27.4562 30.6273 30.3148 30.1144 33.2936 29.7257C32.3068 31.335 31.3445 32.9864 30.4133 34.6748V34.6752ZM33.3794 59.7546C30.3018 59.3956 27.4001 58.9091 24.7201 58.2991C25.5499 55.4979 26.5719 52.5868 27.7656 49.626C28.6066 51.3245 29.4948 53.0218 30.4292 54.7092H30.4294C31.3812 56.4284 32.3672 58.1124 33.3794 59.7546ZM47.1577 71.6627C45.2554 69.5165 43.3578 67.1424 41.5046 64.5888C43.3037 64.6626 45.1378 64.7004 47.0019 64.7004C48.917 64.7004 50.8102 64.6553 52.6736 64.5685C50.8439 67.1682 48.9966 69.5459 47.1577 71.6627ZM66.3155 49.4751C67.5713 52.4679 68.6299 55.3638 69.4705 58.1173C66.7463 58.7671 63.805 59.2905 60.706 59.6794C61.6814 58.0632 62.6442 56.3957 63.5903 54.6804C64.5474 52.945 65.4562 51.207 66.3155 49.4751ZM60.1135 52.5837C58.6448 55.2464 57.1369 57.7883 55.6061 60.1877C52.8181 60.3962 49.9376 60.5035 47.0019 60.5035C44.078 60.5035 41.2339 60.4086 38.4951 60.2227C36.9026 57.7918 35.362 55.2424 33.9027 52.6066H33.903C32.4475 49.978 31.1079 47.3271 29.894 44.6912C31.1075 42.049 32.4436 39.3952 33.8908 36.7713L33.8905 36.7718C35.3414 34.1409 36.8685 31.6039 38.4463 29.1883C41.2406 28.9674 44.1059 28.8522 47.0017 28.8522H47.0019C49.9107 28.8522 52.7798 28.9683 55.5732 29.1911C57.1269 31.5891 58.6436 34.1179 60.1003 36.7491C61.5735 39.4099 62.9268 42.0461 64.1507 44.6315C62.9305 47.2614 61.5802 49.9241 60.1135 52.5837ZM68.3935 5.71767C71.5398 7.61483 72.7633 15.2661 70.7865 25.2992C70.6604 25.9394 70.5184 26.5915 70.3642 27.2523C66.4662 26.3119 62.2333 25.612 57.8015 25.1773C55.2198 21.3331 52.5444 17.8384 49.859 14.8128C50.581 14.0866 51.302 13.3941 52.02 12.7406C58.9565 6.42869 65.4396 3.93662 68.3935 5.71767ZM55.3933 44.5905C55.3933 39.7454 51.6369 35.8179 47.0033 35.8179C42.3697 35.8179 38.6133 39.7454 38.6133 44.5905C38.6133 49.4355 42.3697 53.3632 47.0033 53.3632C51.6369 53.3632 55.3933 49.4355 55.3933 44.5905Z" fill="#53C1DE"/>
</svg>
