<svg width="100" height="100" viewBox="0 0 100 100" fill="none" xmlns="http://www.w3.org/2000/svg">
<path d="M9.76562 0H90.2344C95.6277 0 100 4.37227 100 9.76562V90.2344C100 95.6277 95.6277 100 90.2344 100H9.76562C4.37227 100 0 95.6277 0 90.2344V9.76562C0 4.37227 4.37227 0 9.76562 0Z" fill="#3178C6"/>
<path d="M9.76562 0H90.2344C95.6277 0 100 4.37227 100 9.76562V90.2344C100 95.6277 95.6277 100 90.2344 100H9.76562C4.37227 100 0 95.6277 0 90.2344V9.76562C0 4.37227 4.37227 0 9.76562 0Z" fill="#3178C6"/>
<path fill-rule="evenodd" clip-rule="evenodd" d="M61.9021 79.575V89.3525C63.4916 90.1674 65.3715 90.7783 67.5418 91.1857C69.7121 91.5932 71.9994 91.7969 74.4041 91.7969C78.5484 91.7969 83.0854 91.2041 86.6311 88.9094C90.1592 86.626 91.7969 82.8273 91.7969 78.7195C91.7969 75.6654 90.8494 72.7266 88.7096 70.5006C85.5008 67.1625 80.9916 65.8088 76.941 63.8242C74.9119 62.8301 72.1115 61.2867 72.1115 58.6756C72.1115 58.0035 72.2848 57.3977 72.6313 56.8578C74.0242 54.6873 77.1182 54.2453 79.4783 54.2453C82.1574 54.2453 84.984 54.8451 87.4717 55.9563C88.3377 56.3434 89.1375 56.7914 89.8711 57.3008V48.1648C88.3836 47.5945 86.7584 47.1719 84.9957 46.8969C83.233 46.6219 81.2104 46.4844 78.9281 46.4844C76.6049 46.4844 74.4041 46.734 72.3256 47.233C70.2471 47.732 68.4182 48.5111 66.8387 49.5703C65.2594 50.6297 64.0113 51.9791 63.0943 53.6189C62.1773 55.2586 61.7188 57.2191 61.7188 59.5006C61.7188 62.4135 62.5594 64.8986 64.2406 66.9561C65.9217 69.0133 68.474 70.7549 71.8977 72.1809C74.2008 73.1227 76.5955 74.0521 78.6682 75.4502C80.1047 76.4189 81.4039 77.7699 81.4039 79.6055C81.4039 80.9377 80.6508 82.0672 79.5547 82.768C77.933 83.8047 75.8562 84.0359 73.976 84.0359C71.8566 84.0359 69.7578 83.6643 67.6791 82.9207C65.6008 82.1773 63.675 81.0621 61.9021 79.575V79.575ZM45.4648 55.4848H58.0078V47.4609H23.0469V55.4848H35.5285V91.2109H45.4648V55.4848Z" fill="white"/>
</svg>
